<svg xmlns="http://www.w3.org/2000/svg" width="100%" fill="none" viewBox="0 0 24 24" class="a-ca_footer_social-link-icon"><path fill="#fff" d="M17.33 7.852a1.2 1.2 0 1 1-.005-2.4 1.2 1.2 0 0 1 .004 2.4"></path><path fill="#fff" fill-rule="evenodd" d="M12.01 17.134a5.134 5.134 0 1 1-.02-10.268 5.134 5.134 0 0 1 .02 10.268m-.017-8.467a3.333 3.333 0 1 0 .013 6.667 3.333 3.333 0 0 0-.013-6.667" clip-rule="evenodd"></path><path fill="#fff" fill-rule="evenodd" d="M5.433 2.539c.635-.25 1.361-.42 2.425-.47 1.067-.05 1.408-.063 4.123-.068s3.056.005 4.123.053c1.064.046 1.791.214 2.427.46a4.9 4.9 0 0 1 1.774 1.15c.557.554.9 1.111 1.156 1.768.249.636.42 1.362.47 2.427.05 1.066.063 1.406.068 4.122.005 2.715-.006 3.056-.053 4.123-.046 1.064-.213 1.791-.46 2.427a4.9 4.9 0 0 1-1.15 1.774c-.554.557-1.11.9-1.768 1.157-.636.248-1.362.418-2.426.47-1.067.05-1.407.062-4.123.067-2.715.005-3.056-.005-4.122-.052s-1.792-.214-2.428-.46a4.9 4.9 0 0 1-1.774-1.15 4.9 4.9 0 0 1-1.156-1.77c-.25-.635-.419-1.361-.47-2.425-.05-1.067-.063-1.408-.068-4.123s.006-3.056.052-4.122c.047-1.065.214-1.792.46-2.429a4.9 4.9 0 0 1 1.15-1.773 4.9 4.9 0 0 1 1.77-1.156m.685 17.268c.353.135.882.297 1.857.34 1.055.046 1.371.056 4.04.05s2.987-.016 4.041-.066c.974-.046 1.504-.21 1.856-.347.466-.182.799-.4 1.148-.75.35-.351.566-.684.746-1.151.136-.354.298-.883.34-1.858.047-1.054.057-1.37.051-4.04-.005-2.67-.016-2.987-.066-4.041-.046-.975-.21-1.504-.347-1.855-.183-.468-.4-.8-.75-1.15a3.1 3.1 0 0 0-1.152-.745c-.353-.137-.883-.298-1.857-.34-1.055-.047-1.371-.056-4.041-.051s-2.985.016-4.04.066c-.975.046-1.503.21-1.856.347-.466.183-.799.4-1.148.75-.35.351-.566.684-.746 1.152-.136.353-.299.883-.34 1.857-.047 1.055-.056 1.371-.051 4.04s.016 2.987.066 4.04c.045.976.21 1.505.347 1.857.183.467.4.8.75 1.149.351.348.685.565 1.152.746" clip-rule="evenodd"></path></svg>