<svg xmlns="http://www.w3.org/2000/svg" width="100%" fill="none" viewBox="0 0 24 24" class="a-ca_footer_social-link-icon"><path fill="#fff" fill-rule="evenodd" d="M20.936 6.027c.31.312.533.7.646 1.126C22 8.723 22 12 22 12s0 3.275-.418 4.845a2.52 2.52 0 0 1-1.768 1.78c-1.564.42-7.814.42-7.814.42s-6.25 0-7.814-.42a2.51 2.51 0 0 1-1.768-1.78C2 15.274 2 11.999 2 11.999s0-3.275.418-4.846a2.51 2.51 0 0 1 1.768-1.78C5.75 4.954 12 4.954 12 4.954s6.25 0 7.814.42c.424.116.811.342 1.122.654m-5.754 5.972L9.955 9.025v5.948z" clip-rule="evenodd"></path></svg>