<svg width="164.848450" height="45.848465" viewBox="0 0 164.848 45.8485" fill="none" xmlns="http://www.w3.org/2000/svg" xmlns:xlink="http://www.w3.org/1999/xlink">
	<desc>
			Created with Pixso.
	</desc>
	<defs/>
	<circle id="Ellipse 1" cx="22.924225" cy="22.924232" r="22.924232" fill="#FFFFFF" fill-opacity="1.000000"/>
	<path id="company" d="M55.02 31.63Q56.47 32.44 58.36 32.44Q59.93 32.44 61.24 31.87Q61.7 31.67 62.12 31.4Q63.19 30.74 63.87 29.8Q64.26 29.26 64.52 28.63L61.38 27.72Q61.21 28.06 60.97 28.35Q60.67 28.69 60.26 28.95C59.76 29.23 59.21 29.37 58.6 29.37Q57.72 29.37 57.05 28.99Q56.64 28.75 56.31 28.36Q55.46 27.35 55.46 25.61Q55.46 24.47 55.83 23.61C56.1 23.04 56.46 22.6 56.92 22.28C57.4 21.96 57.95 21.8 58.58 21.8Q59.32 21.8 59.92 22.08Q60.08 22.16 60.23 22.25C60.73 22.55 61.08 22.96 61.3 23.48L64.47 22.57C64.02 21.4 63.25 20.47 62.15 19.77Q61.78 19.53 61.38 19.35Q60.04 18.73 58.42 18.73Q56.66 18.73 55.28 19.45Q55.12 19.53 54.98 19.61Q54.29 20.02 53.74 20.56Q53.1 21.2 52.66 22.04Q51.83 23.59 51.83 25.64Q51.83 27.67 52.66 29.21C53.21 30.23 53.97 31.02 54.95 31.59Q54.99 31.61 55.02 31.63ZM69.72 31.61C70.73 32.16 71.89 32.44 73.18 32.44Q74.98 32.44 76.44 31.73Q76.56 31.68 76.68 31.61Q77.45 31.19 78.07 30.6Q78.7 29.99 79.16 29.21Q79.16 29.21 79.16 29.2Q80.09 27.66 80.09 25.56Q80.09 23.48 79.18 21.96C78.58 20.93 77.76 20.14 76.73 19.59Q76.46 19.44 76.18 19.32Q74.85 18.73 73.26 18.73Q71.68 18.73 70.35 19.32Q70.07 19.44 69.8 19.59C68.77 20.14 67.95 20.93 67.34 21.96C66.76 22.99 66.46 24.21 66.46 25.61Q66.46 27.69 67.32 29.24Q67.78 30.04 68.42 30.66Q69 31.21 69.72 31.61ZM85.79 18.92L82.7 18.92L82.7 32.25L86.11 32.25L86.11 24.95C86.11 23.93 86.33 23.17 86.75 22.65C87.2 22.12 87.84 21.85 88.67 21.85C89.49 21.85 90.1 22.11 90.49 22.63C90.9 23.14 91.1 23.91 91.1 24.92L91.1 32.25L94.51 32.25L94.51 24.97C94.51 23.96 94.74 23.19 95.21 22.65C95.69 22.12 96.34 21.85 97.18 21.85C98 21.85 98.63 22.11 99.07 22.63Q99.74 23.4 99.74 24.92L99.74 32.25L103.15 32.25L103.15 24.47Q103.15 22.6 102.51 21.35C102.09 20.49 101.48 19.84 100.7 19.4Q99.55 18.73 97.98 18.73Q96.99 18.73 96.1 19.03Q95.77 19.14 95.45 19.29C94.68 19.67 94.06 20.18 93.58 20.84C93.15 20.16 92.59 19.65 91.87 19.29C91.16 18.92 90.38 18.73 89.53 18.73C88.82 18.73 88.16 18.88 87.55 19.16C86.97 19.43 86.46 19.78 86.03 20.23L85.79 18.92ZM109.65 30.79L109.65 37.58L106.24 37.58L106.24 18.92L109.33 18.92L109.55 20.57C109.94 20.06 110.49 19.62 111.2 19.27C111.91 18.91 112.73 18.73 113.65 18.73C114.81 18.73 115.83 19.02 116.72 19.59Q117.03 19.78 117.31 20.02Q118.23 20.8 118.8 21.99C119.32 23 119.57 24.2 119.57 25.59C119.57 26.97 119.32 28.18 118.8 29.21Q118.23 30.4 117.31 31.18Q117.03 31.41 116.72 31.61C115.85 32.16 114.83 32.44 113.65 32.44C112.62 32.44 111.73 32.22 110.96 31.8Q110.19 31.36 109.65 30.79ZM129.75 30.63L130.02 32.25L133.16 32.25L133.16 23.53Q133.16 21.99 132.47 20.88Q132.19 20.44 131.8 20.07C130.91 19.18 129.58 18.73 127.8 18.73C126.35 18.73 125.12 19.05 124.12 19.69Q123.53 20.08 123.09 20.59Q122.42 21.37 122.1 22.44L125.03 23.51C125.19 22.88 125.5 22.42 125.96 22.12C126.44 21.8 127 21.64 127.64 21.64C128.37 21.64 128.91 21.8 129.24 22.12C129.58 22.44 129.75 22.79 129.75 23.16L129.75 24.09L126.42 24.47C124.78 24.66 123.55 25.13 122.74 25.88Q122.2 26.37 121.9 26.98Q121.54 27.72 121.54 28.65C121.54 29.42 121.72 30.08 122.1 30.65C122.47 31.2 122.99 31.64 123.64 31.96C124.32 32.26 125.1 32.41 125.99 32.41C126.93 32.41 127.68 32.25 128.23 31.93C128.8 31.61 129.31 31.18 129.75 30.63ZM139.38 18.92L136.29 18.92L136.29 32.25L139.7 32.25L139.7 24.95Q139.7 23.4 140.34 22.63C140.79 22.09 141.43 21.83 142.26 21.83C143.08 21.83 143.69 22.08 144.1 22.6C144.51 23.11 144.72 23.89 144.72 24.92L144.72 32.25L148.16 32.25L148.16 24.47Q148.16 22.6 147.54 21.35C147.15 20.49 146.58 19.84 145.84 19.4Q144.74 18.73 143.17 18.73C142.46 18.73 141.79 18.88 141.17 19.16C140.57 19.43 140.05 19.8 139.62 20.28L139.38 18.92ZM164.04 18.92L160.38 18.92L157.05 27.69L153.8 18.92L149.98 18.92L155.24 31.77L152.73 37.58L156.17 37.58L164.04 18.92ZM74.73 28.97C74.23 29.24 73.71 29.37 73.16 29.37Q72.64 29.37 72.18 29.22Q71.9 29.12 71.64 28.97C71.17 28.69 70.81 28.27 70.54 27.72C70.28 27.15 70.14 26.45 70.14 25.61Q70.14 24.31 70.54 23.48C70.83 22.91 71.2 22.49 71.66 22.23C72.14 21.94 72.66 21.8 73.21 21.8C73.78 21.8 74.3 21.94 74.78 22.23C75.28 22.49 75.68 22.91 75.98 23.48C76.29 24.03 76.44 24.72 76.44 25.56C76.44 26.43 76.28 27.15 75.96 27.72C75.64 28.27 75.23 28.69 74.73 28.97ZM115.01 22.89C115.6 23.57 115.89 24.47 115.89 25.59C115.89 26.71 115.6 27.61 115.01 28.31C114.45 28.98 113.7 29.32 112.77 29.32C112.21 29.32 111.68 29.18 111.2 28.89C110.74 28.59 110.37 28.16 110.08 27.61C109.8 27.06 109.65 26.39 109.65 25.59C109.65 24.77 109.8 24.09 110.08 23.56C110.37 23.01 110.74 22.59 111.2 22.31C111.68 22 112.21 21.85 112.77 21.85C113.7 21.85 114.45 22.2 115.01 22.89ZM126.87 26.84L129.75 26.47L129.75 26.68C129.75 27.34 129.63 27.89 129.4 28.33C129.17 28.78 128.83 29.11 128.39 29.35C127.96 29.58 127.44 29.69 126.82 29.69C126.27 29.69 125.84 29.57 125.54 29.32C125.23 29.05 125.08 28.73 125.08 28.36C125.08 27.97 125.23 27.64 125.54 27.37Q125.99 26.95 126.87 26.84Z" fill="#FFFFFF" fill-opacity="1.000000" fill-rule="evenodd"/>
	<path id="AI" d="M19.1 17.88L19.89 17.88L22.31 24.8L16.67 24.8L19.1 17.88ZM15.79 27.3L14.54 30.86L11.47 30.86L17.02 15.38L21.95 15.38L27.5 30.86L24.43 30.86L23.18 27.3L15.79 27.3ZM32.15 15.38L29.17 15.38L29.17 30.86L32.15 30.86L32.15 15.38Z" fill="#09090B" fill-opacity="1.000000" fill-rule="evenodd"/>
</svg>
