<svg width="26" height="26" viewBox="0 0 26 26" fill="none" xmlns="http://www.w3.org/2000/svg">
<path d="M10.1346 0.319355C12.6982 -0.259857 15.3732 -0.0470997 17.8075 0.921895L18.2909 1.12502L18.3817 1.17189C18.8217 1.42383 19.0085 1.97326 18.7977 2.44631C18.5869 2.91918 18.0535 3.14783 17.5721 2.98928L17.4764 2.95217L17.0672 2.78029C15.0077 1.96057 12.745 1.78055 10.576 2.27053C8.26228 2.79329 6.17872 4.05036 4.63754 5.85354C3.0966 7.65664 2.17935 9.90966 2.02329 12.2764C1.86725 14.6433 2.48127 16.9974 3.77231 18.9873C5.0633 20.977 6.96257 22.4963 9.18735 23.3184C11.4124 24.1404 13.8443 24.2214 16.119 23.5488C18.3936 22.8763 20.3901 21.4858 21.8104 19.586C23.2304 17.6863 23.9984 15.3786 23.9998 13.0069V11.9033C23.9998 11.3511 24.4476 10.9033 24.9998 10.9033C25.5521 10.9033 25.9998 11.3511 25.9998 11.9033V13.0078C25.9982 15.811 25.0904 18.539 23.412 20.7842C21.7335 23.0294 19.3736 24.672 16.6854 25.4668C13.9973 26.2615 11.1244 26.1657 8.49497 25.1944C5.86534 24.2228 3.62038 22.427 2.09457 20.0752C0.568808 17.7235 -0.156281 14.9418 0.0281685 12.1446C0.212643 9.34732 1.29664 6.68473 3.11801 4.55373C4.93935 2.42284 7.40034 0.937175 10.1346 0.319355Z" fill="white"/>
<path d="M24.3019 2.2842C24.6973 1.8987 25.3304 1.9065 25.7159 2.30178C26.1014 2.69716 26.0936 3.33028 25.6984 3.71584L13.3908 15.7158C13.0269 16.0706 12.4599 16.0933 12.0704 15.7832L11.9943 15.7168L8.30286 12.1201L8.23255 12.0449C7.90723 11.6565 7.9224 11.077 8.28333 10.7061C8.64457 10.3352 9.22427 10.3041 9.62122 10.6192L9.69739 10.6875L12.6915 13.6035L24.3019 2.2842Z" fill="white"/>
</svg>
