<svg width="12" height="13" viewBox="0 0 12 13" fill="none" xmlns="http://www.w3.org/2000/svg">
<path d="M1 0.532914L11 0.5M1 12.5L11 12.4671" stroke="white" stroke-linecap="round" stroke-linejoin="round"/>
<path d="M10.0635 0.541016H1.93447L1.98444 1.53462C2.04907 2.81235 2.5578 4.01611 3.40822 4.90353L4.1938 5.72296C4.29089 5.82406 4.36814 5.94539 4.42091 6.07966C4.47368 6.21393 4.50088 6.35838 4.50088 6.50433C4.50088 6.65028 4.47368 6.79473 4.42091 6.929C4.36814 7.06327 4.29089 7.1846 4.1938 7.2857L3.40822 8.10444C2.5578 8.99187 2.04907 10.1956 1.98444 11.4734L1.93384 12.4663H10.0635L10.0135 11.4754C9.9487 10.1962 9.43875 8.99132 8.58659 8.10376L7.80101 7.28502C7.70382 7.1839 7.62649 7.06253 7.57366 6.9282C7.52083 6.79386 7.4936 6.64934 7.4936 6.5033C7.4936 6.35727 7.52083 6.21274 7.57366 6.07841C7.62649 5.94407 7.70382 5.8227 7.80101 5.72159L8.58659 4.90353C9.4389 4.0158 9.94885 2.81061 10.0135 1.53119L10.0635 0.541016Z" stroke="white" stroke-linejoin="round"/>
</svg>
