<svg width="25" height="26" viewBox="0 0 25 26" fill="none" xmlns="http://www.w3.org/2000/svg">
<path d="M20.1667 1.5C19.15 1.5 18.175 1.90387 17.4561 2.62276C16.7372 3.34165 16.3333 4.31667 16.3333 5.33333V20.6667C16.3333 21.6833 16.7372 22.6584 17.4561 23.3772C18.175 24.0961 19.15 24.5 20.1667 24.5C21.1833 24.5 22.1584 24.0961 22.8772 23.3772C23.5961 22.6584 24 21.6833 24 20.6667C24 19.65 23.5961 18.675 22.8772 17.9561C22.1584 17.2372 21.1833 16.8333 20.1667 16.8333H4.83333C3.81667 16.8333 2.84165 17.2372 2.12276 17.9561C1.40387 18.675 1 19.65 1 20.6667C1 21.6833 1.40387 22.6584 2.12276 23.3772C2.84165 24.0961 3.81667 24.5 4.83333 24.5C5.85 24.5 6.82502 24.0961 7.54391 23.3772C8.2628 22.6584 8.66667 21.6833 8.66667 20.6667V5.33333C8.66667 4.31667 8.2628 3.34165 7.54391 2.62276C6.82502 1.90387 5.85 1.5 4.83333 1.5C3.81667 1.5 2.84165 1.90387 2.12276 2.62276C1.40387 3.34165 1 4.31667 1 5.33333C1 6.35 1.40387 7.32502 2.12276 8.04391C2.84165 8.7628 3.81667 9.16667 4.83333 9.16667H20.1667C21.1833 9.16667 22.1584 8.7628 22.8772 8.04391C23.5961 7.32502 24 6.35 24 5.33333C24 4.31667 23.5961 3.34165 22.8772 2.62276C22.1584 1.90387 21.1833 1.5 20.1667 1.5Z" stroke="white" stroke-width="2" stroke-linecap="round" stroke-linejoin="round"/>
</svg>
