<svg width="13" height="13" viewBox="0 0 13 13" fill="none" xmlns="http://www.w3.org/2000/svg">
<g opacity="0.3">
<path d="M4.875 4.875V3.35833C4.875 2.75167 4.875 2.44833 4.99308 2.2165C5.09708 2.01229 5.26229 1.84708 5.4665 1.74308C5.69833 1.625 6.00167 1.625 6.60833 1.625H9.64167C10.2483 1.625 10.5517 1.625 10.7835 1.74308C10.9873 1.84694 11.1531 2.01267 11.2569 2.2165C11.375 2.44833 11.375 2.75167 11.375 3.35833V6.39167C11.375 6.99833 11.375 7.30167 11.2569 7.5335C11.1531 7.73733 10.9873 7.90306 10.7835 8.00692C10.5517 8.125 10.2483 8.125 9.64329 8.125H8.125M4.875 4.875H3.35833C2.75167 4.875 2.44833 4.875 2.2165 4.99308C2.01267 5.09694 1.84694 5.26267 1.74308 5.4665C1.625 5.69833 1.625 6.00167 1.625 6.60833V9.64167C1.625 10.2483 1.625 10.5517 1.74308 10.7835C1.84694 10.9873 2.01267 11.1531 2.2165 11.2569C2.44779 11.375 2.75113 11.375 3.35671 11.375H6.39383C6.99888 11.375 7.30167 11.375 7.5335 11.2569C7.73733 11.1531 7.90306 10.9873 8.00692 10.7835C8.125 10.5517 8.125 10.2489 8.125 9.64329V8.125M4.875 4.875H6.39167C6.99833 4.875 7.30167 4.875 7.5335 4.99308C7.73733 5.09694 7.90306 5.26267 8.00692 5.4665C8.125 5.69779 8.125 6.00112 8.125 6.60671V8.125" stroke="white" stroke-linecap="round" stroke-linejoin="round"/>
</g>
</svg>
