<svg width="28" height="27" viewBox="0 0 28 27" fill="none" xmlns="http://www.w3.org/2000/svg">
<path d="M1.85742 21.1428V13.1428C1.85742 9.96022 3.13675 6.90798 5.41398 4.65754C7.69121 2.4071 10.7798 1.14282 14.0003 1.14282C17.2208 1.14282 20.3093 2.4071 22.5866 4.65754C24.8638 6.90798 26.1431 9.96022 26.1431 13.1428V21.1428" stroke="white" stroke-width="2" stroke-linecap="round" stroke-linejoin="round"/>
<path d="M26.1431 22.7755C26.1431 23.4791 25.8588 24.1539 25.3528 24.6515C24.8467 25.149 24.1604 25.4285 23.4447 25.4285H22.0955C21.3799 25.4285 20.6935 25.149 20.1875 24.6515C19.6814 24.1539 19.3971 23.4791 19.3971 22.7755V18.7959C19.3971 18.0922 19.6814 17.4174 20.1875 16.9199C20.6935 16.4223 21.3799 16.1428 22.0955 16.1428H26.1431V22.7755ZM1.85742 22.7755C1.85742 23.4791 2.14172 24.1539 2.64777 24.6515C3.15382 25.149 3.84017 25.4285 4.55583 25.4285H5.90504C6.6207 25.4285 7.30706 25.149 7.81311 24.6515C8.31916 24.1539 8.60345 23.4791 8.60345 22.7755V18.7959C8.60345 18.0922 8.31916 17.4174 7.81311 16.9199C7.30706 16.4223 6.6207 16.1428 5.90504 16.1428H1.85742V22.7755Z" stroke="white" stroke-width="2" stroke-linecap="round" stroke-linejoin="round"/>
</svg>
