<svg width="20" height="20" viewBox="0 0 20 20" fill="none" xmlns="http://www.w3.org/2000/svg">
<path d="M10 15.1509C8.50181 15.1507 7.06505 14.5554 6.00568 13.496C4.9463 12.4367 4.35105 10.9999 4.35083 9.50171M10 15.1509C11.4983 15.1507 12.9352 14.5561 13.9946 13.4966C15.054 12.437 15.6492 11 15.6492 9.50171M10 15.1509V17.2917M7.33416 5.37421C7.33416 4.66718 7.61503 3.98912 8.11497 3.48918C8.61491 2.98924 9.29297 2.70837 10 2.70837C10.707 2.70837 11.3851 2.98924 11.885 3.48918C12.385 3.98912 12.6658 4.66718 12.6658 5.37421V9.49921C12.6658 10.2062 12.385 10.8843 11.885 11.3842C11.3851 11.8842 10.707 12.165 10 12.165C9.29297 12.165 8.61491 11.8842 8.11497 11.3842C7.61503 10.8843 7.33416 10.2062 7.33416 9.49921V5.37421Z" stroke="white" stroke-linecap="round" stroke-linejoin="round"/>
</svg>
