<svg width="13" height="13" viewBox="0 0 13 13" fill="none" xmlns="http://www.w3.org/2000/svg">
<path d="M8.12488 2.70834L10.2915 4.875M11.4691 3.68984C11.7555 3.40352 11.9164 3.01517 11.9165 2.61022C11.9165 2.20526 11.7557 1.81687 11.4694 1.53048C11.1831 1.2441 10.7947 1.08318 10.3898 1.08313C9.98482 1.08308 9.59643 1.2439 9.31005 1.53021L2.08097 8.76092C1.9552 8.88632 1.86219 9.04071 1.81013 9.2105L1.09459 11.5678C1.08059 11.6147 1.07953 11.6644 1.09153 11.7118C1.10353 11.7592 1.12813 11.8025 1.16273 11.837C1.19733 11.8716 1.24064 11.8961 1.28805 11.908C1.33547 11.92 1.38523 11.9188 1.43205 11.9048L3.78992 11.1898C3.95956 11.1382 4.11394 11.0457 4.23951 10.9205L11.4691 3.68984Z" stroke="white" stroke-linecap="round" stroke-linejoin="round"/>
</svg>
