<svg width="17" height="17" viewBox="0 0 17 17" fill="none" xmlns="http://www.w3.org/2000/svg">
<path d="M6.83333 4.33333L6.40333 5.495C5.84 7.01833 5.55833 7.78 5.0025 8.33583C4.44667 8.89167 3.685 9.17333 2.16167 9.73667L1 10.1667L2.16167 10.5967C3.685 11.16 4.44667 11.4425 5.0025 11.9975C5.55833 12.5525 5.84 13.315 6.40333 14.8383L6.83333 16L7.26333 14.8383C7.82667 13.315 8.10917 12.5533 8.66417 11.9975C9.21917 11.4417 9.98167 11.16 11.505 10.5967L12.6667 10.1667L11.505 9.73667C9.98167 9.17333 9.22 8.89167 8.66417 8.33583C8.10833 7.78 7.82667 7.01833 7.26333 5.495L6.83333 4.33333ZM13.5 1L13.3158 1.4975C13.0742 2.15083 12.9533 2.4775 12.7158 2.715C12.4775 2.95333 12.1508 3.07417 11.4975 3.315L11 3.5L11.4983 3.68417C12.1508 3.92583 12.4775 4.04667 12.715 4.28417C12.9533 4.5225 13.0742 4.84917 13.315 5.5025L13.5 6L13.6842 5.5025C13.9258 4.84917 14.0467 4.5225 14.2842 4.285C14.5225 4.04667 14.8492 3.92583 15.5025 3.685L16 3.5L15.5017 3.31583C14.8492 3.07417 14.5225 2.95333 14.285 2.71583C14.0467 2.4775 13.9258 2.15083 13.685 1.4975L13.5 1Z" stroke="white" stroke-linecap="round" stroke-linejoin="round"/>
</svg>
