<svg width="233" height="42" viewBox="0 0 233 42" fill="none" xmlns="http://www.w3.org/2000/svg">
<g opacity="0.3">
<path d="M119.76 18.28C119.84 17.1333 120.213 16.1467 120.88 15.32C121.547 14.48 122.427 13.8333 123.52 13.38C124.627 12.9267 125.88 12.7 127.28 12.7C128.613 12.7 129.78 12.9067 130.78 13.32C131.78 13.72 132.56 14.2867 133.12 15.02C133.68 15.7533 133.96 16.6067 133.96 17.58C133.96 18.3267 133.767 19.02 133.38 19.66C132.993 20.3 132.373 20.9467 131.52 21.6C130.68 22.24 129.56 22.9333 128.16 23.68L123.62 26.18L123.36 25.26H134.38V28H119.98V25.6L126.4 21.84C127.467 21.2267 128.3 20.7 128.9 20.26C129.5 19.8067 129.927 19.3867 130.18 19C130.433 18.6133 130.56 18.2 130.56 17.76C130.56 17.2933 130.433 16.88 130.18 16.52C129.927 16.16 129.547 15.88 129.04 15.68C128.547 15.48 127.92 15.38 127.16 15.38C126.267 15.38 125.533 15.5133 124.96 15.78C124.387 16.0333 123.953 16.38 123.66 16.82C123.38 17.26 123.213 17.7467 123.16 18.28H119.76Z" fill="white"/>
<path d="M24.28 13V28H20.92V14.12L22.6 15.64L16.22 16.76V14.12L21.78 13H24.28Z" fill="url(#paint0_linear_0_110)"/>
<path d="M226.04 17.74C226.12 16.7933 226.453 15.94 227.04 15.18C227.64 14.42 228.487 13.82 229.58 13.38C230.673 12.9267 231.987 12.7 233.52 12.7C234.867 12.7 236.033 12.8733 237.02 13.22C238.007 13.5667 238.773 14.0467 239.32 14.66C239.867 15.2733 240.14 16 240.14 16.84C240.14 17.52 239.933 18.14 239.52 18.7C239.12 19.2467 238.493 19.6867 237.64 20.02C236.787 20.34 235.707 20.4933 234.4 20.48V20.1C235.667 20.0333 236.747 20.1333 237.64 20.4C238.547 20.6533 239.247 21.0533 239.74 21.6C240.233 22.1467 240.48 22.8333 240.48 23.66C240.48 24.5533 240.193 25.3533 239.62 26.06C239.06 26.7533 238.24 27.3 237.16 27.7C236.08 28.1 234.767 28.3 233.22 28.3C231.713 28.3 230.4 28.0867 229.28 27.66C228.16 27.2333 227.287 26.6333 226.66 25.86C226.033 25.0867 225.693 24.18 225.64 23.14H229.04C229.147 23.94 229.547 24.5533 230.24 24.98C230.933 25.4067 231.927 25.62 233.22 25.62C234.473 25.62 235.42 25.4267 236.06 25.04C236.7 24.6533 237.02 24.1133 237.02 23.42C237.02 23.0067 236.913 22.66 236.7 22.38C236.487 22.1 236.12 21.8933 235.6 21.76C235.093 21.6133 234.4 21.54 233.52 21.54H230.88V19.16H233.52C234.667 19.16 235.487 18.9867 235.98 18.64C236.473 18.2933 236.72 17.8467 236.72 17.3C236.72 16.6867 236.44 16.2133 235.88 15.88C235.32 15.5467 234.473 15.38 233.34 15.38C232.18 15.38 231.273 15.5867 230.62 16C229.967 16.4 229.573 16.98 229.44 17.74H226.04Z" fill="url(#paint1_linear_0_110)"/>
<path d="M40 21C40 10.5066 31.4934 2 21 2C10.5066 2 2 10.5066 2 21C2 31.4934 10.5066 40 21 40V42C9.40202 42 0 32.598 0 21C0 9.40202 9.40202 0 21 0C32.598 0 42 9.40202 42 21C42 32.598 32.598 42 21 42V40C31.4934 40 40 31.4934 40 21Z" fill="url(#paint2_linear_0_110)"/>
<path d="M146 21C146 10.5066 137.493 2 127 2C116.507 2 108 10.5066 108 21C108 31.4934 116.507 40 127 40V42C115.402 42 106 32.598 106 21C106 9.40202 115.402 0 127 0C138.598 0 148 9.40202 148 21C148 32.598 138.598 42 127 42V40C137.493 40 146 31.4934 146 21Z" fill="white"/>
<path d="M252 21C252 10.5066 243.493 2 233 2C222.507 2 214 10.5066 214 21C214 31.4934 222.507 40 233 40V42C221.402 42 212 32.598 212 21C212 9.40202 221.402 0 233 0C244.598 0 254 9.40202 254 21C254 32.598 244.598 42 233 42V40C243.493 40 252 31.4934 252 21Z" fill="url(#paint3_linear_0_110)"/>
<path d="M91.9287 13.9287C92.3191 13.5383 92.9522 13.5385 93.3428 13.9287L99.707 20.293C100.098 20.6835 100.098 21.3165 99.707 21.7071L93.3428 28.0713C92.9522 28.4615 92.3191 28.4617 91.9287 28.0713C91.5383 27.6809 91.5385 27.0478 91.9287 26.6572L96.5859 22H49V20H96.5859L91.9287 15.3428C91.5385 14.9522 91.5383 14.3192 91.9287 13.9287Z" fill="url(#paint4_linear_0_110)"/>
<path d="M197.929 13.9287C198.319 13.5383 198.952 13.5385 199.343 13.9287L205.707 20.293C206.098 20.6835 206.098 21.3165 205.707 21.7071L199.343 28.0713C198.952 28.4615 198.319 28.4617 197.929 28.0713C197.538 27.6809 197.538 27.0478 197.929 26.6572L202.586 22H155V20H202.586L197.929 15.3428C197.538 14.9522 197.538 14.3192 197.929 13.9287Z" fill="url(#paint5_linear_0_110)"/>
</g>
<defs>
<linearGradient id="paint0_linear_0_110" x1="16" y1="20.5" x2="126.5" y2="20.5" gradientUnits="userSpaceOnUse">
<stop stop-color="white" stop-opacity="0"/>
<stop offset="0.509615" stop-color="white"/>
<stop offset="1" stop-color="white" stop-opacity="0"/>
</linearGradient>
<linearGradient id="paint1_linear_0_110" x1="166" y1="20.5" x2="242" y2="20.5" gradientUnits="userSpaceOnUse">
<stop stop-color="white" stop-opacity="0"/>
<stop offset="0.509615" stop-color="white"/>
<stop offset="1" stop-color="white" stop-opacity="0"/>
</linearGradient>
<linearGradient id="paint2_linear_0_110" x1="-6" y1="21" x2="203.5" y2="21" gradientUnits="userSpaceOnUse">
<stop stop-color="white" stop-opacity="0"/>
<stop offset="0.509615" stop-color="white"/>
<stop offset="1" stop-color="white" stop-opacity="0"/>
</linearGradient>
<linearGradient id="paint3_linear_0_110" x1="111.5" y1="21" x2="296" y2="21" gradientUnits="userSpaceOnUse">
<stop stop-color="white"/>
<stop offset="0.803971" stop-color="white" stop-opacity="0"/>
</linearGradient>
<linearGradient id="paint4_linear_0_110" x1="41.5" y1="21" x2="147.5" y2="21" gradientUnits="userSpaceOnUse">
<stop stop-color="white" stop-opacity="0"/>
<stop offset="0.509615" stop-color="white"/>
<stop offset="1" stop-color="white" stop-opacity="0"/>
</linearGradient>
<linearGradient id="paint5_linear_0_110" x1="155" y1="21" x2="210" y2="21" gradientUnits="userSpaceOnUse">
<stop offset="0.35" stop-color="white"/>
<stop offset="1" stop-color="white" stop-opacity="0"/>
</linearGradient>
</defs>
</svg>
