<svg width="14" height="22" viewBox="0 0 14 22" fill="none" xmlns="http://www.w3.org/2000/svg">
<path d="M3.52818 0.493596C3.57084 0.351056 3.65937 0.225925 3.78051 0.136942C3.90164 0.0479588 4.04887 -8.68762e-05 4.20014 1.17929e-07H9.79978C9.91063 8.27614e-05 10.0199 0.0260217 10.1185 0.0756815C10.2172 0.125341 10.3024 0.197302 10.3672 0.285639C10.432 0.373977 10.4745 0.476165 10.4912 0.583791C10.5079 0.691417 10.4984 0.801404 10.4633 0.904696L7.9715 8.24951H13.2996C13.4306 8.24942 13.5591 8.28548 13.6703 8.35359C13.7816 8.4217 13.8711 8.51911 13.9287 8.63474C13.9864 8.75037 14.0098 8.87957 13.9963 9.00763C13.9828 9.13568 13.933 9.25745 13.8525 9.35907L4.05315 21.7333C3.95276 21.8607 3.81002 21.9494 3.64984 21.984C3.48965 22.0185 3.3222 21.9968 3.17669 21.9225C3.03119 21.8481 2.91687 21.726 2.8537 21.5773C2.79052 21.4287 2.7825 21.263 2.83103 21.1091L5.35227 13.0617H0.700365C0.591543 13.0618 0.484204 13.0369 0.386874 12.9891C0.289545 12.9413 0.204905 12.8719 0.139677 12.7863C0.0744483 12.7008 0.0304288 12.6015 0.0111137 12.4963C-0.00820132 12.3911 -0.00227987 12.2829 0.0284081 12.1804L3.52818 0.493596Z" fill="white"/>
</svg>
