<svg width="16" height="15" viewBox="0 0 16 15" fill="none" xmlns="http://www.w3.org/2000/svg">
<path d="M1 4.54545V12.2273C1 12.6974 1.18437 13.1483 1.51256 13.4808C1.84075 13.8132 2.28587 14 2.75 14H13.25C13.7141 14 14.1592 13.8132 14.4874 13.4808C14.8156 13.1483 15 12.6974 15 12.2273V4.54545M1 4.54545V2.77273C1 2.30257 1.18437 1.85167 1.51256 1.51922C1.84075 1.18677 2.28587 1 2.75 1H13.25C13.7141 1 14.1592 1.18677 14.4874 1.51922C14.8156 1.85167 15 2.30257 15 2.77273V4.54545M1 4.54545H15M2.75 2.77273H2.75622V2.77903H2.75V2.77273ZM4.5 2.77273H4.50622V2.77903H4.5V2.77273ZM6.25 2.77273H6.25622V2.77903H6.25V2.77273Z" stroke="white" stroke-linecap="round" stroke-linejoin="round"/>
</svg>
