<svg width="28" height="27" viewBox="0 0 28 27" fill="none" xmlns="http://www.w3.org/2000/svg">
<path d="M12.5717 4H4.23837C3.60691 4 3.0013 4.25085 2.55479 4.69736C2.10827 5.14388 1.85742 5.74948 1.85742 6.38095V23.0476C1.85742 23.6791 2.10827 24.2847 2.55479 24.7312C3.0013 25.1777 3.60691 25.4286 4.23837 25.4286H20.905C21.5365 25.4286 22.1421 25.1777 22.5886 24.7312C23.0351 24.2847 23.286 23.6791 23.286 23.0476V14.7143" stroke="white" stroke-width="2" stroke-linecap="round" stroke-linejoin="round"/>
<path d="M21.7467 1.89709C22.2296 1.41414 22.8846 1.14282 23.5676 1.14282C24.2506 1.14282 24.9056 1.41414 25.3886 1.89709C25.8715 2.38003 26.1429 3.03505 26.1429 3.71804C26.1429 4.40103 25.8715 5.05605 25.3886 5.539L13.8559 17.0717L9 18.2857L10.214 13.4298L21.7467 1.89709Z" stroke="white" stroke-width="2" stroke-linecap="round" stroke-linejoin="round"/>
</svg>
