<?xml version="1.0" encoding="UTF-8"?>
<svg id="logosandtypes_com" data-name="logosandtypes com" xmlns="http://www.w3.org/2000/svg" viewBox="0 0 150 150">
  <defs>
    <style>
      .cls-1 {
        fill: #fff;
        fill-rule: evenodd;
      }

      .cls-2 {
        fill: none;
      }
    </style>
  </defs>
  <g id="Layer_3" data-name="Layer 3">
    <g id="Layer_2" data-name="Layer 2">
      <path id="Layer_3-2" data-name="Layer 3-2" class="cls-2" d="M0,0H150V150H0V0Z"/>
    </g>
  </g>
  <path class="cls-1" d="M25.51,126.51c0,6.84,4.37,11.28,11.1,11.28h32.43c19.35,0,35.18-6.65,45.93-18.3H25.51v7.02Z"/>
  <path class="cls-1" d="M69.04,12.59H36.61c-6.73,0-11.1,4.44-11.1,11.28v7.02H114.98c-10.76-11.65-26.59-18.3-45.93-18.3Z"/>
  <path class="cls-1" d="M97.35,93.03c0,5.53,3.55,9.13,9.02,9.13h19.43c2.2-5.56,3.68-11.67,4.37-18.26h-23.8c-5.47,0-9.02,3.59-9.02,9.13Z"/>
  <path class="cls-1" d="M70.41,57.39c0,5.54,3.55,9.13,9.02,9.13h50.74c-.69-6.59-2.17-12.7-4.37-18.26h-46.37c-5.47,0-9.02,3.59-9.02,9.13Z"/>
  <path class="cls-1" d="M79.42,93.03c0-5.54-3.55-9.13-9.02-9.13H25.51v18.26h44.89c5.47,0,9.02-3.59,9.02-9.13Z"/>
  <path class="cls-1" d="M52.48,57.39c0-5.54-3.55-9.13-9.02-9.13H25.51v18.26h17.96c5.47,0,9.02-3.59,9.02-9.13Z"/>
</svg>