<?xml version="1.0" encoding="UTF-8"?><svg id="a" xmlns="http://www.w3.org/2000/svg"
   xmlns:xlink="http://www.w3.org/1999/xlink" viewBox="0 0 69.32 66.87">
   <defs>
      <linearGradient id="b" x1="36.42" y1="23.74" x2="50.1" y2="23.74" gradientTransform="translate(0 85) scale(1 -1)"
         gradientUnits="userSpaceOnUse">
         <stop offset="0" stop-color="#9d21a4" />
         <stop offset=".52" stop-color="#f51c90" />
         <stop offset="1" stop-color="#9801ca" />
      </linearGradient>
      <linearGradient id="c" x1="40.96" y1="65.93" x2="57.27" y2="37.65" gradientTransform="translate(0 85) scale(1 -1)"
         gradientUnits="userSpaceOnUse">
         <stop offset="0" stop-color="#ff7300" />
         <stop offset=".68" stop-color="#ffb933" />
         <stop offset="1" stop-color="#ffdb4c" />
      </linearGradient>
      <radialGradient id="d" cx="-537.29" cy="452.87" fx="-537.29" fy="452.87" r="1"
         gradientTransform="translate(5553.59 4672.1) scale(10.27 -10.26)" gradientUnits="userSpaceOnUse">
         <stop offset="0" stop-color="#202646" />
         <stop offset=".35" stop-color="#0025c6" />
         <stop offset=".83" stop-color="#182948" />
      </radialGradient>
      <linearGradient id="e" x1="29.74" y1="42.3" x2="39.53" y2="52.1" gradientTransform="translate(0 85) scale(1 -1)"
         gradientUnits="userSpaceOnUse">
         <stop offset="0" stop-color="#f1d003" />
         <stop offset=".56" stop-color="#eb583f" />
         <stop offset=".92" stop-color="#e4d494" />
      </linearGradient>
      <linearGradient id="f" x1="45.36" y1="50.01" x2="38.62" y2="56.75" gradientTransform="translate(0 85) scale(1 -1)"
         gradientUnits="userSpaceOnUse">
         <stop offset="0" stop-color="#fbb03b" />
         <stop offset=".17" stop-color="#f3bc58" />
         <stop offset=".44" stop-color="#e8cd82" />
         <stop offset=".58" stop-color="#e4d492" />
         <stop offset="1" stop-color="#e4d494" />
      </linearGradient>
      <linearGradient id="g" x1="40.97" y1="55.93" x2="40.97" y2="59.71" gradientTransform="translate(0 85) scale(1 -1)"
         gradientUnits="userSpaceOnUse">
         <stop offset="0" stop-color="#c7b299" />
         <stop offset=".72" stop-color="#f89b23" />
      </linearGradient>
      <radialGradient id="h" cx="-537.29" fx="-537.29" r="1"
         gradientTransform="translate(5553.59 4672.1) scale(10.27 -10.26)" xlink:href="#d" />
      <linearGradient id="i" x1="36.29" y1="24.3" x2="52.6" y2="24.3" gradientTransform="translate(0 85) scale(1 -1)"
         gradientUnits="userSpaceOnUse">
         <stop offset="0" stop-color="#9800ce" />
         <stop offset=".48" stop-color="#ff288b" />
         <stop offset="1" stop-color="#f84690" />
      </linearGradient>
      <linearGradient id="j" x1="36.26" y1="19.19" x2="44.41" y2="19.19" gradientTransform="translate(0 85) scale(1 -1)"
         gradientUnits="userSpaceOnUse">
         <stop offset="0" stop-color="#f84690" />
         <stop offset=".52" stop-color="#ff288b" />
         <stop offset="1" stop-color="#9800ce" />
      </linearGradient>
      <linearGradient id="k" x1="34.66" y1="71.41" x2="34.66" y2="58.03" gradientTransform="translate(0 85) scale(1 -1)"
         gradientUnits="userSpaceOnUse">
         <stop offset="0" stop-color="#ff7300" />
         <stop offset=".96" stop-color="#f7aa46" />
         <stop offset="1" stop-color="#f7ad49" />
      </linearGradient>
      <linearGradient id="l" x1="30.44" y1="38.61" x2="39.44" y2="38.61" xlink:href="#c" />
      <linearGradient id="m" x1="30.44" y1="31.53" x2="39.44" y2="31.53" xlink:href="#c" />
      <radialGradient id="n" cx="-521.01" cy="441.73" fx="-521.01" fy="441.73" r="1"
         gradientTransform="translate(4207.42 3564.93) scale(8.01 -8.01)" xlink:href="#d" />
      <radialGradient id="o" cx="-521.01" cy="441.73" fx="-521.01" fy="441.73"
         gradientTransform="translate(4207.42 3564.94) scale(8.01 -8.01)" xlink:href="#d" />
      <linearGradient id="p" x1="24.9" y1="19.19" x2="33.06" y2="19.19" xlink:href="#j" />
      <linearGradient id="q" x1="19.22" y1="23.74" x2="32.89" y2="23.74" xlink:href="#b" />
      <linearGradient id="r" x1="23.32" y1="59.96" x2="33.45" y2="54.42" gradientTransform="translate(0 85) scale(1 -1)"
         gradientUnits="userSpaceOnUse">
         <stop offset="0" stop-color="#f1d003" />
         <stop offset=".56" stop-color="#eb583f" />
         <stop offset=".92" stop-color="#848d73" />
      </linearGradient>
      <linearGradient id="s" x1="39.36" y1="75.18" x2="29.64" y2="48.44" gradientTransform="translate(0 85) scale(1 -1)"
         gradientUnits="userSpaceOnUse">
         <stop offset="0" stop-color="#f1d003" />
         <stop offset=".61" stop-color="#e65b42" />
         <stop offset="1" stop-color="#818e93" />
      </linearGradient>
      <linearGradient id="t" x1="16.72" y1="24.3" x2="33.03" y2="24.3" xlink:href="#j" />
      <linearGradient id="u" x1="27.13" y1="37.18" x2="33.06" y2="37.18" gradientTransform="translate(0 85) scale(1 -1)"
         gradientUnits="userSpaceOnUse">
         <stop offset="0" stop-color="#ff8f01" />
         <stop offset=".56" stop-color="#ff9800" />
         <stop offset="1" stop-color="#ffaf00" />
      </linearGradient>
      <linearGradient id="v" x1="26.11" y1="43.45" x2="43.2" y2="43.45" xlink:href="#c" />
      <linearGradient id="w" x1="24.44" y1="33.82" x2="38.51" y2="33.82" xlink:href="#u" />
      <linearGradient id="x" x1="10.2" y1="36.82" x2="17.98" y2="50.31" gradientTransform="translate(0 85) scale(1 -1)"
         gradientUnits="userSpaceOnUse">
         <stop offset="0" stop-color="#009bb6" />
         <stop offset=".56" stop-color="#2d6db2" />
         <stop offset=".92" stop-color="#585ca4" />
      </linearGradient>
   </defs>
   <path
      d="M40.62,60.14l.22.45h0c-.21.41-1.26,2.48-2.53,4.09-.6.77-1.26,1.43-1.89,1.75l-.13.1s0,0-.03.01c0,0-1.67.74-3.2,0h-.03s-.13-.11-.13-.11c-.63-.32-1.28-.98-1.89-1.75-1.27-1.61-2.33-3.68-2.53-4.09h0s.22-.45.22-.45l.03-.02c.26.49.5.92.74,1.31.61,1.02,1.16,1.79,1.67,2.62,0,0,0,.01,0,.01.79,1.28,1.76,1.95,1.76,1.95,0,0,.49.47,1.31.55h0c.13.01.28.01.43,0,.15.01.29.01.43,0h0c.82-.08,1.31-.55,1.31-.55,0,0,.97-.67,1.76-1.95h0c.51-.85,1.06-1.61,1.67-2.64.24-.39.48-.82.74-1.31,0,0,.03.02.03.02Z"
      style="fill:#fdfdfd;" />
   <path
      d="M68.6,36.83c.18.14.39.24.63.29-.07,1.03-.19,2.05-.36,3.07l-.17-.03c-.27,1.24-.79,2.65-1.4,4.03.7-2.4,1.14-4.87,1.3-7.36Z"
      style="fill:#dc01ff;" />
   <path
      d="M68.7,40.16l.17.03c-.44,2.72-1.2,5.39-2.28,7.93-1.74,4.12-4.26,7.85-7.43,11.01-1.62,1.62-3.4,3.08-5.31,4.35h0c-.72.32-1.34.54-1.83.61l.8-.73c6.9-4.37,12.12-11.16,14.47-19.16h0s0,0,0,0c.61-1.38,1.13-2.79,1.4-4.03h0Z"
      style="fill:#dc01ff;" />
   <path
      d="M67.3,44.2c-2.35,8-7.58,14.78-14.47,19.16l2.67-2.45c.92-.68,1.82-1.5,2.56-2.35,2.65-2.42,4.75-5.48,6.27-8.15,1.87-3.28,2.88-5.98,2.96-6.2,0,0,0,0,0,0Z"
      style="fill:#ff8d02;" />
   <path d="M67.3,44.21c-.08.23-1.09,2.92-2.96,6.2.16-.28.25-.6.26-.93h0c.72-1.25,1.8-3.23,2.7-5.28Z"
      style="fill:#eaeaec;" />
   <path
      d="M68.6,36.83c-.16,2.5-.6,4.97-1.3,7.36h0s0,0,0,0c0,0,0,0,0,0-.9,2.04-1.98,4.02-2.7,5.28.01-.68-.33-1.32-.9-1.68,1.85-4.1,2.8-8.55,2.79-13.04,0-4.95-1.14-9.83-3.37-14.25.64-.19,1.14-.7,1.31-1.35.08-.3.09-.61.02-.92,2.73,4.94,4.19,10.49,4.22,16.13"
      style="fill:#eaeaec;" />
   <path
      d="M63.69,47.81c.42.26.71.66.84,1.14.05.18.07.36.07.54-.26.45-.52.9-.79,1.34l-.21.32c-.52.29-1.15.32-1.69.08.12-.21.25-.41.37-.62.07.02.15.04.22.05h.07c.67.07,1.26-.43,1.32-1.1,0-.11,0-.23-.02-.34h0s0-.05-.01-.07c0,0,0-.01,0-.02l-.02-.07s-.03-.09-.06-.14h0c-.02-.05-.05-.1-.08-.14h0s-.03-.05-.05-.07c-.01-.02-.03-.03-.04-.05,0-.01-.02-.02-.03-.04,0,0-.01-.02-.02-.02-.01-.01-.03-.03-.04-.04,0,0,0,0,0,0l-.03-.02h0s-.02-.01-.03-.02c-.02-.02-.04-.03-.06-.04h0c.1-.22.21-.44.31-.66h0Z"
      style="fill:#fdfdfd;" />
   <path d="M63.8,50.82s.32-.51.79-1.34c-.02.69-.4,1.32-1,1.65,0,0,.21-.32.21-.32Z" style="fill:#fdfdfd;" />
   <path d="M64.34,50.41c-1.52,2.67-3.62,5.73-6.27,8.15,2.29-2.62,4.77-6.3,4.77-6.3l.75-1.12c.31-.17.57-.42.75-.73Z"
      style="fill:#ffffff;" />
   <path
      d="M63.63,47.77l.06.04c-.1.22-.2.44-.31.66h0s-.03-.02-.03-.02l-.03-.02s-.04-.03-.06-.04c-.03-.01-.05-.03-.08-.04-.05-.02-.1-.04-.15-.06h-.04s-.07-.03-.1-.04v-.73c.25.03.5.12.72.25Z"
      style="fill:#fdfdfd;" />
   <path d="M63.01,48.28s.03,0,.04.01c-.01,0-.02,0-.04-.01Z" style="fill:#ffffff;" />
   <path
      d="M63.98,22.39c-.27-.63-.56-1.26-.87-1.88-.07.02-.14.04-.2.05v26.97c.25.03.5.12.72.24l.06.04c1.85-4.1,2.8-8.55,2.79-13.04,0-4.29-.84-8.46-2.5-12.38Z"
      style="fill:transparent" />
   <path
      d="M62.96,48.26h.04s.01.01.01.01c.06.02.13.04.18.07.03.01.05.03.08.04.02,0,.04.02.06.04l.03.02s.02.01.03.02t0,0h0c-.15.32-.31.64-.47.95v-1.17s.03,0,.05,0h0ZM62.91,49.42v.08h-.04s.03-.05.04-.08h0Z"
      style="fill:#ffffff;" />
   <path d="M62.91,47.45v.08h-.06s.06-.08.06-.08Z" style="fill:#ffffff;" />
   <path d="M62.91,47.18c-.11-.09-.28-.24-.5-.44v-25.94l.14-.22h.01c.12,0,.24-.01.35-.03v26.62h0Z"
      style="fill:#f1cf25;" />
   <path d="M62.41,46.74c.22.2.39.35.5.44v.27l-.06.07c-.15-.01-.29-.01-.44,0v-.79Z" style="fill:#ffffff;" />
   <path d="M62.85,19.84s.04-.01.06-.02c-.02,0-.04.01-.06.02Z" style="fill:#ffffff;" />
   <path
      d="M62.91,48.25h-.05s.03,0,.05,0h0ZM62.79,49.66l.11.22-.31.15c.07-.12.14-.25.2-.38h0ZM62.87,49.5c-.03.05-.05.1-.08.16l-.08-.16h.16,0Z"
      style="fill:#ffffff;" />
   <path
      d="M62.58,48.23s.05,0,.08,0c.04,0,.07,0,.11,0h.03s.03,0,.04,0c.02,0,.05,0,.07.01v1.17l-.04.08h-.16l-.03-.07-.14.07h-.13v-1.24s.03,0,.05,0c0,0,.01,0,.02,0h.04s.04-.01.07-.01Z"
      style="fill:#ffffff;" />
   <path d="M62.68,49.43l.03.07h-.17l.14-.07Z" style="fill:#ffffff;" />
   <path
      d="M62.66,51.38c.33,0,.65-.08.93-.24l-.75,1.12s-2.48,3.68-4.77,6.3l-2.56,2.35c-1.91,1.42-3.89,2.27-4.6,1.62.06-.15.13-.34.22-.54h0c2.44-1.48,4.68-3.28,6.64-5.35h0c.07-.08.13-.15.2-.22l.02-.02c1.48-1.59,2.79-3.32,3.91-5.17.24.1.5.16.76.16h0Z"
      style="fill:#ffffff;" />
   <path
      d="M63.62,18.05c.34.58.14,1.33-.45,1.67-.04.03-.09.05-.14.07l-.06.02s-.03.01-.05.02h-.01s0,0,0,0c-.04.01-.09.02-.13.03h-.05s-.04.01-.04.01c-.02,0-.05,0-.07,0-.02,0-.04,0-.06,0-.05,0-.1,0-.15-.01-.02,0-.04,0-.06,0h-.05s-.02-.01-.04-.02h-.02s-.02,0-.02,0c-.14-.04-.27-.1-.38-.18h0s-.01-.01-.02-.02h-.02c-.06-.06-.12-.11-.16-.17-.01-.01-.02-.03-.03-.04,0-.01-.02-.02-.03-.04-.03-.04-.05-.08-.08-.12l-.03-.06s-.04-.09-.06-.14c0-.01,0-.03-.01-.04,0-.02-.01-.03-.02-.05v-.03s-.01-.02-.02-.03v-.03s-.02-.08-.02-.11c0-.02,0-.04,0-.06v-.06s0-.1,0-.15c0-.01,0-.02,0-.04,0-.04.01-.07.02-.1,0,0,0,0,0,0,0-.01,0-.03,0-.04,0-.01,0-.03.01-.04,0-.03.02-.06.03-.08l.03-.06s.05-.09.08-.14c.03-.05.06-.09.1-.13,0,0,.01-.02.02-.03l.04-.04s.04-.04.06-.05h0s.03-.03.05-.05c.05-.04.1-.07.15-.1.58-.34,1.33-.14,1.67.45Z"
      style="fill:#ffffff;" />
   <path
      d="M61.96,19.95l-.28.43c-.41-.21-.74-.56-.91-.99-.24-.59-.17-1.25.17-1.78.36-.55.97-.88,1.62-.88.69,0,1.33.37,1.68.97h0c.1.18.17.36.21.55h0c.18.83-.19,1.67-.92,2.09-.29.17-.63.26-.97.26h-.01l.03-.05s-.62-.59-.62-.59ZM61.46,19.18s.03.06.04.09c.04.07.09.13.14.19.04.05.09.1.14.14l.02.02h.02s.02.03.03.03l.05.03s.07.04.11.06l.05.02c.06.03.12.05.18.07h.02s.02,0,.02,0h.04s.03.02.04.02h0c.07,0,.14.01.2.02h.06s.03,0,.04,0h.03c.05,0,.11-.02.16-.03.02,0,.04-.01.06-.02h0s0,0,.01,0c.02,0,.03-.01.05-.02.07-.02.13-.05.19-.09.58-.34.78-1.08.45-1.67-.11-.19-.27-.34-.45-.45-.43-.25-.97-.2-1.36.11-.02.01-.03.02-.05.04h0s-.06.07-.09.1c-.05.05-.09.1-.12.16l-.03.05c-.05.09-.09.18-.12.28v.04s0,0,0,0v.06s-.02.05-.02.05c0,.04-.01.07-.01.11,0,.02,0,.05,0,.08v.06s0,.06,0,.06v.05s.01.04.02.06c0,.01,0,.02,0,.03,0,.02,0,.04.02.07,0,.02,0,.04.02.05.02.05.04.1.06.15h0Z"
      style="fill:#ffffff;" />
   <path d="M62.41,20.59c-.26-.02-.5-.09-.73-.21l.28-.43.62.59-.03.05s-.09,0-.14,0Z" style="fill:#ffffff;" />
   <path d="M62.41,20.59s.09,0,.14,0l-.14.22v-.22Z" style="fill:#f1cf25;" />
   <path d="M62.41,47.73c.08,0,.15.01.23.02l-.23.26v-.28h0Z" style="fill:#fdfdfd;" />
   <path d="M62.41,47.53c.14-.02.29-.02.44,0l-.2.23c-.08,0-.15-.01-.23-.02v-.2h0Z" style="fill:#fdfdfd;" />
   <path
      d="M62.52,48.23h-.04s-.01,0-.02,0c-.02,0-.03,0-.05,0v-.25l.23-.26.2-.23h.07v.73h0s-.05,0-.07-.01c-.06-.01-.12-.02-.18-.01-.05,0-.09,0-.14,0Z"
      style="fill:#fdfdfd;" />
   <path d="M62.41,46.74c-1.31-1.19-4.29-4.2-5.8-8.16-.76-1.99-1.31-4.07-1.74-6.08l7.54-11.7s0,25.94,0,25.94Z"
      style="fill:transparent" />
   <path d="M61.68,20.38c.22.12.47.19.73.21v.22l-7.54,11.7c-.13-.6-.25-1.2-.36-1.8l6.96-10.01s.21-.32.21-.32Z"
      style="fill:#00e9bf;" />
   <path
      d="M62.41,47.53c-.17.02-.33.07-.48.13-4.25-.79-6.97-5.91-7.61-8.03-.69-2.26-1.62-5.5-2.15-10.74v-.05c-.47-4.54-1.59-8.05-1.87-8.88,1.31.21,2.24.2,2.24.2,0,0,.12.55.82,4.02.35,1.73.67,4.02,1.14,6.53l-.95,1.37.98.95.33-.52c.43,2.01.98,4.09,1.74,6.08,1.51,3.96,4.5,6.97,5.8,8.16v.79h0Z"
      style="fill:#ffffff;" />
   <path d="M61.93,47.66c.15-.06.31-.11.48-.13v.2c-.16-.02-.32-.04-.48-.07Z" style="fill:#fdfdfd;" />
   <path
      d="M61.93,47.66c.16.03.32.05.48.07v.28l-.34.38h0s-.05.03-.07.04c-.07.04-.13.09-.19.15-.11.11-.21.24-.27.39h0s0,0,0,0l-.03.03c-.24.01-.49.02-.74.01.14-.61.57-1.12,1.15-1.35Z"
      style="fill:#fdfdfd;" />
   <path
      d="M63.68,48.78s.05.09.08.13h0s.03.07.03.07c.01.02.02.05.03.07,0,.02.01.04.02.07v.02s.01.04.02.07v.08c.03.15.02.31-.02.47l-.02.08c-.03.08-.06.15-.1.22-.23.4-.66.63-1.12.61h-.03s-.09-.01-.13-.02c0,0,0,0,0,0h-.07s0-.02,0-.02c-.02,0-.04-.01-.06-.02,0,0-.01,0-.02,0,.11-.19.21-.38.32-.57l.31-.15-.11-.22c.03-.05.06-.11.08-.16h.04v-.08c.17-.31.32-.63.48-.95h0l.06.04.03.02s.02.01.03.02c0,0,0,0,0,0,.01.01.03.03.04.04,0,0,.01.02.02.02.04.05.08.1.12.15t0,0h0ZM62.15,48.34l-.04.02.04-.02Z"
      style="fill:#ffffff;" />
   <path
      d="M62.05,50.5s.05.03.07.04h0s.09.04.14.06c-.12.21-.24.42-.37.62-.27-.12-.51-.29-.71-.52l.68-.33s.03.02.04.03l.06.04h.02s.06.05.06.05h0ZM62.07,48.38l.34-.38v.25s-.03,0-.04,0h-.03s-.04.02-.06.03c0,0,0,0,0,0-.04.01-.08.03-.12.05-.01,0-.03.01-.04.02-.01,0-.02,0-.03.02,0,0,0,0,0,0Z"
      style="fill:#fdfdfd;" />
   <path
      d="M61.91,50.41s-.03-.02-.04-.03l.71-.34c-.1.19-.21.38-.32.57l-.07-.03s-.05-.02-.08-.03c-.02-.01-.05-.02-.07-.04-.02-.01-.04-.03-.06-.04,0,0-.01,0-.02-.01,0,0-.06-.04-.06-.04Z"
      style="fill:#ffffff;" />
   <path d="M61.87,50.38s-.03-.03-.05-.04c.01.01.03.03.05.04Z" style="fill:#ffffff;" />
   <path
      d="M61.56,49.97s0,.01,0,.02c0,.02.02.04.03.05h0s.02.04.03.05c.04.07.09.13.15.19l.02.02s.02.02.03.03c.01.01.03.03.04.04l-.68.33c-.11-.13-.2-.27-.28-.42,0,0,.64-.31.64-.31Z"
      style="fill:#fdfdfd;" />
   <path
      d="M61.69,51.12c.07.04.13.07.21.1-1.18,1.94-2.56,3.76-4.13,5.4h0c-2.14,2.19-6.04,3.83-6.04,3.83l.17-.44c.52-1.26,1.33-3.64,2.04-5.79l7.26-3.53c.14.16.3.3.5.41Z"
      style="fill:transparent" />
   <path
      d="M61.65,50.13s-.03-.05-.05-.08h0s-.02-.04-.03-.06v-.02s.97-.47.97-.47h.17l.08.16c-.07.13-.13.25-.2.38l-.71.34-.05-.04s0,0,0,0c0,0-.01-.01-.02-.02l-.02-.02c-.05-.05-.09-.11-.13-.17h0ZM62.07,48.38l-.53.58s.02-.04.03-.06l.04-.07c.08-.14.19-.27.33-.37.02-.02.04-.03.06-.05.02-.02.05-.03.07-.04Z"
      style="fill:#ffffff;" />
   <path
      d="M61.5,49.83s-.01-.04-.02-.05v-.05s-.02-.02-.02-.02v-.04s-.01-.04-.01-.04c0-.01,0-.03,0-.04-.01-.09-.01-.17,0-.26h0s0-.05,0-.05c0-.02,0-.05.01-.07,0-.05.02-.09.03-.14,0,0,0-.02,0-.02h0s0-.02,0-.02h0s.01-.05.02-.06h0s.53-.59.53-.59h0s.02-.01.03-.02c.03-.02.06-.03.09-.04.02,0,.05-.02.07-.03h0s.04-.01.06-.02h.03s.03-.02.04-.02v1.25h.13l-.98.48s0,0,0,0c0-.02-.02-.04-.03-.06-.01-.02-.02-.05-.03-.07h0Z"
      style="fill:#ffffff;" />
   <path
      d="M60.78,49.01c.25,0,.49,0,.73-.01l.03-.03s-.02.04-.02.06v.02s0,0,0,0v.02s-.04.09-.04.14c0,.03-.01.07-.02.1h0s0,.06,0,.06c0,.07,0,.14,0,.21,0,.01,0,.02,0,.04v.04s.01.02.01.04v.02s.02.07.04.11c.01.04.03.09.05.13h0s-.64.32-.64.32c-.19-.4-.24-.85-.14-1.27Z"
      style="fill:#fdfdfd;" />
   <path d="M61.36,18.89s0,.02,0,.03c0,0,0-.02,0-.03h0Z" style="fill:#ffffff;" />
   <path
      d="M57.16,12.28c1.52,1.52,2.88,3.18,4.07,4.97-.11.1-.21.22-.29.35l-15.49-7.43c-.24-.27-.5-.53-.76-.78l-3.99-5.85c5.81,1.12,11.19,3.84,15.54,7.86.31.29.62.58.92.88h0Z"
      style="fill:#1f2a48;" />
   <path d="M60.92,50.29c.07.15.16.29.28.42l-7.26,3.53.22-.66s6.77-3.29,6.77-3.29Z" style="fill:#fdfdfd;" />
   <path
      d="M58.97,11.48c.78.93,2.98,3.61,3.96,5.28-.61-.12-1.25.06-1.7.49-1.42-2.15-3.09-4.11-4.99-5.86,1.01-.1,1.99-.02,2.73.08h0Z"
      style="fill:#986f09;" />
   <path
      d="M45.45,10.17l15.49,7.43c-.09.14-.16.29-.22.45l-14.48-6.95c-.25-.32-.51-.63-.79-.93h0ZM60.64,18.89c.02.17.06.34.13.5h-7.93c-.18-.16-.36-.33-.53-.5h8.33Z"
      style="fill:#f9b309;" />
   <path
      d="M60.61,11.68l-1-.12c-2.47-2.66-5.34-4.91-8.51-6.67l.54-.45c2.76,1.55,5.29,3.47,7.53,5.71.5.5.98,1.01,1.45,1.53Z"
      style="fill:#01ff94;" />
   <path
      d="M69.31,34.12c-.06-4.46-.98-8.86-2.72-12.97-1.46-3.46-3.48-6.67-5.98-9.48l-1.01-.12.03.03c1.6,1.73,3.02,3.63,4.24,5.65.14.13.26.28.36.45h0c.1.17.17.36.21.55h0c2.78,5.02,4.23,10.66,4.22,16.39,0,.73-.02,1.47-.07,2.2.18.14.39.24.63.29.06-.83.09-1.66.09-2.49,0-.17,0-.34,0-.51Z"
      style="fill:#ff7801;" />
   <path d="M58.97,11.48l.64.08.03.03c-.19-.03-.42-.07-.67-.11h0Z" style="fill:#e5e2e5;" />
   <path
      d="M58.97,11.48c.25.03.48.07.67.11,1.6,1.73,3.02,3.63,4.23,5.65-.26-.24-.59-.41-.94-.48-.98-1.68-3.18-4.35-3.96-5.28h0Z"
      style="fill:#986f09;" />
   <path d="M57.16,57.25c-1.81,1.82-3.84,3.41-6.04,4.74.2-.51.44-1.12.6-1.53,0,0,3.9-1.64,6.04-3.82-.2.21-.4.41-.6.61Z"
      style="fill:transparent" />
   <path d="M55.5,60.91l2.56-2.35c-.77.87-1.63,1.66-2.56,2.35Z" style="fill:#ffffff;" />
   <path d="M55.38,49.75s-.54,1.72-1.23,3.82l-1.35.65c.61-2.05.98-3.87,1.12-4.66.84.15,1.46.18,1.46.18Z"
      style="fill:#ffe9b6;" />
   <path d="M54.87,32.51l-.33.51-.98-.95.95-1.37c.11.59.23,1.19.36,1.8Z" style="fill:#ffffff;" />
   <path d="M52.8,54.23l1.35-.65-.22.66-1.33.65c.07-.22.14-.44.2-.65Z" style="fill:#fdfdfd;" />
   <path
      d="M51.4,48.78c.18.08.36.16.53.24.67.27,1.38.44,1.98.56-.29,1.57-.67,3.13-1.12,4.66l-2.57,1.25c.52-2.51,1.01-5.65,1.17-6.69Z"
      style="fill:#f6515b;" />
   <path d="M52.83,19.39h-.71v-.5h.18c.22.22.41.39.53.5h0Z" style="fill:#ffffff;" />
   <path d="M52.02,64.09c-.16.02-.31.03-.43.01.42-.24.83-.49,1.24-.75,0,0-.8.74-.8.74Z" style="fill:#ff8d02;" />
   <path
      d="M51.72,60.46s-.82-.53-1.18-.79c.05-.09.1-.17.15-.26.78-1.37,1.41-2.99,1.9-4.53l1.33-.65c-.71,2.15-1.52,4.53-2.04,5.79,0,0-.07.17-.17.44Z"
      style="fill:#fde5d0;" />
   <path
      d="M51.64,4.43l-.54.45c-5.03-2.79-10.68-4.25-16.43-4.24v-.64c4.68,0,9.22.92,13.49,2.72,1.19.5,2.36,1.07,3.49,1.71ZM50.9,62.53c.71.65,2.68-.2,4.6-1.62l-2.67,2.45c-.41.26-.82.51-1.24.75-.17-.01-.32-.08-.45-.19-.45-.42-.53-.67-.32-1.17,0,0,.09-.22.09-.22Z"
      style="fill:#ff8d02;" />
   <path d="M51.4,48.78c-.16,1.05-.65,4.19-1.17,6.69l-2.22,1.08c.56-3.97.52-9.43.52-9.43,0,0,1.44.99,2.87,1.66h0Z"
      style="fill:#a70d75;" />
   <path
      d="M54.31,39.63c-.69-2.26-1.62-5.5-2.15-10.74v-.05c-.47-4.54-1.59-8.05-1.87-8.89-.88-.14-1.93-.38-2.98-.8.33.53.97,1.67,1.49,3.35.74,2.38.87,5.48.87,5.48,0,0,.01.34.04.89.05.97.14,2.6.28,4.15.21,2.41.61,6.37,2.13,10.17,1.42,3.55,5.17,5.74,8.64,5.83.14-.61.57-1.12,1.15-1.35-4.24-.79-6.97-5.91-7.61-8.03Z"
      style="fill:#feca3c;" />
   <path
      d="M39.97,10.08c.41.24.81.51,1.2.78.39.27.77.56,1.14.86.74.6,1.46,1.25,2.12,1.95-.57-.78-1.24-1.49-1.94-2.16-.71-.67-1.48-1.27-2.29-1.81-.41-.27-.83-.52-1.27-.74-.44-.22-.89-.42-1.35-.59-.12-.04-.24-.08-.35-.12-.06-.02-.12-.04-.18-.06l-.18-.05c-.12-.03-.24-.07-.36-.09l-.36-.08c-.12-.03-.24-.04-.37-.06l-.19-.03c-.06,0-.12-.01-.19-.02-.12-.01-.25-.02-.37-.03h-.12v-2.1c3.76.07,6.39,1.07,8.37,2.49l1.48,2.18,1.47.7c.69.88,1.3,1.79,1.88,2.67,1.21,1.85,2.61,3.56,4.19,5.12h-.18v.5h.71c.11.1.18.16.19.17-1.24-.17-2.47-.46-3.65-.88h0c-1.24-.65-2.48-1.54-4.07-2.77-1.58-1.24-2.62-2.28-5.06-3.91-2.16-1.45-4.74-1.61-5.31-1.64v-1.94h.08c.12.01.23.02.35.03.06,0,.12,0,.17.02l.17.02c.12.02.23.03.35.06.46.08.91.21,1.36.35.44.15.88.33,1.31.53.21.1.43.21.63.32.21.11.42.23.62.35Z"
      style="fill:#ffffff;" />
   <path d="M48.01,56.55l2.22-1.08c-.04.21-.09.42-.13.62l-2.18,1.06c.03-.19.06-.4.09-.6h0Z" style="fill:#fdfdfd;" />
   <path d="M50.1,56.09c.04-.2.09-.41.13-.62l2.57-1.25c-.06.22-.13.43-.2.65,0,0-2.5,1.21-2.5,1.21Z"
      style="fill:#fdfdfd;" />
   <path
      d="M47.92,57.15l2.18-1.06c-.05.23-.1.46-.15.67-.72,3.06-2.93,5.72-5.86,7.53-2.93,1.81-7.67,2.13-7.67,2.13.63-.32,1.28-.98,1.89-1.75,3.25.54,8.26-2.29,9.26-5.86.14-.49.25-1.05.35-1.66h0Z"
      style="fill:url(#b);" />
   <path
      d="M54.05,47.04c-1-.9-2.56-3.54-3.23-6.23-.67-2.69-.9-4.13-1.03-7.56-.06-1.46-.09-2.93-.11-4.39,0-.58,0-.88,0-.88,0,0-.13-3.1-.87-5.48-.53-1.68-1.16-2.82-1.49-3.35l-.13-.05c-2.61-1.07-3.49-1.58-3.51-1.6.04.06,2.97,3.98,3.67,8.4.15.91.23,1.78.26,2.62.15,3.25-.36,6.01-.36,8.76,0,3.46,1.49,9.94,8.26,11.09,0,0-.46-.44-1.46-1.34Z"
      style="fill:url(#c);" />
   <path d="M40.84,60.59l7.08-3.44c-.1.61-.22,1.18-.35,1.66-1,3.58-6.01,6.4-9.26,5.87,1.27-1.61,2.33-3.68,2.53-4.09Z"
      style="fill:transparent" />
   <path
      d="M40.23,11.98c2.44,1.64,3.48,2.68,5.06,3.91,1.58,1.24,2.82,2.12,4.07,2.77-3.48-1.21-6.52-3.29-8.9-4.92-3.18-2.18-5.54-2.63-5.54-2.63v-.77c.57.02,3.15.19,5.31,1.64Z"
      style="fill:#fff;" />
   <path
      d="M60.72,18.05c-.09.27-.12.55-.08.83h-8.33c-1.57-1.55-2.97-3.27-4.19-5.12-.58-.88-1.19-1.79-1.88-2.67l14.48,6.95h0Z"
      style="fill:transparent" />
   <path
      d="M43.33,25.62c1.08.35,2,.99,2.47,1.35.14.49.26.93.32,1.26l-2.72-.25c.08-.09.16-.18.23-.28.09-.13.05-.28-.09-.28l.05-.18c.24.08.35.07.38-.05.04-.15-.12-.22-.9-.65-.79-.43-1.16-.57-1.8-.53-.64.03-1.61.5-2.32,1.43-.3.39-.64.69-.95.96-.39.34-.73.6-.84.88-.28-.1-.79-.2-1.09-.17v-.85c0-2,.58-2.62,1.25-2.78.67-.17,2.83-.22,4.89-.08.39.03.77.11,1.13.23Z"
      style="fill:url(#d);" />
   <path
      d="M45.45,10.17l-.34-.16-.42-.62c.27.25.52.51.76.78ZM44.69,9.39c-.43-.41-.9-.8-1.4-1.16l-3.28-4.81c.23.04.46.08.69.12l3.99,5.85h0Z"
      style="fill:#ffffff;" />
   <path d="M46.24,11.1l-1.47-.7-1.48-2.17c.51.36.97.75,1.4,1.16l.42.62.34.16c.28.3.54.62.79.93h0Z"
      style="fill:#ffffff;" />
   <path
      d="M40.58,60.12c.11-.2.21-.41.32-.62.54-1.08.96-1.79,1.28-2.36h0c.33-.56.56-.99.76-1.51.4-1.04,1.08-3.47,1.26-5.59.14-1.64-.3-3.31-1.01-4.81-.21-.44-.44-.86-.69-1.26-1.09-1.78-5.02-4.45-5.48-4.69-.46-.24-.33-.4-.2-.5.13-.1,1.43-.85,1.43-.85,0,0,1.98.66,3.59,2.1,1.61,1.43,2.11,2.38,2.11,2.38,0,0-1.61-4.16-1.34-4.25s2.52,1.31,3.31,3.4c.79,2.09.62,6.41,0,8.82-.62,2.41-1.97,4.39-2.83,6.07-.59,1.14-1.21,2.27-1.84,3.39l-.65.31s-.03-.02-.03-.02Z"
      style="fill:#fffdfe;" />
   <path
      d="M40.21,9.7c.81.54,1.58,1.14,2.29,1.81.7.67,1.37,1.38,1.94,2.16-.67-.69-1.38-1.34-2.12-1.95-.37-.3-.75-.59-1.14-.86-.39-.27-.79-.53-1.2-.78-.21-.12-.41-.24-.62-.35-.21-.11-.42-.22-.63-.32-.43-.2-.87-.38-1.31-.53-.45-.14-.9-.27-1.36-.35-.11-.02-.23-.04-.35-.06l-.17-.02c-.06,0-.12-.01-.17-.02-.12-.01-.23-.02-.35-.03h-.08v-.57h.12c.12.01.25.03.37.04.06,0,.12.01.19.02l.19.03c.12.02.25.03.37.06l.36.08c.12.02.24.06.36.09l.18.05c.06.02.12.04.18.06.12.04.24.08.35.12.46.17.92.37,1.35.59.44.22.86.47,1.27.74h0Z"
      style="fill:transparent;" />
   <path
      d="M42.19,51.52s.34,1.07.37,2.62c.03,1.31,0,1.93-.23,2.62-.04.13-.09.25-.14.38h0c-.33.57-.74,1.28-1.28,2.36-.33.66-.68,1.3-1.06,1.93-.74-.06-3.17-.25-3.62-.34-.54-.11-.7-.51,0-1.07.7-.56,5.32-4.97,5.61-6.35.28-1.35.01-2.71,0-2.78.14.24.26.45.35.64h0Z"
      style="fill:#250ef0;" />
   <path
      d="M42.33,56.76c.87-1.37,1.37-8.86,1.13-10.64-.04-.31-.14-.6-.27-.88h.02c.71,1.49,1.15,3.16,1.01,4.81-.18,2.12-.86,4.55-1.26,5.59-.2.52-.44.94-.76,1.51.05-.13.1-.25.14-.38h0Z"
      style="fill:#f9db00;" />
   <path
      d="M43.46,46.12c.24,1.78-.26,9.28-1.13,10.64.22-.69.26-1.3.23-2.62-.03-1.55-.37-2.63-.37-2.63,0-.04-.06-1.34-.15-2.89-.09-1.57-.28-2.83-1.22-4.26-.05-.08-.11-.16-.16-.24-.95-1.33-2.44-2.41-3.86-2.31-1.5.11-2.13.76-2.13.76v-1.08s.94-.69,2.19-.69,2.66,1.01,3.49,1.58c.69.47,2.21,1.49,2.85,2.84.13.28.23.58.27.88Z"
      style="fill:#162653;" />
   <path
      d="M41.47,28.43c-1.01-.06-1.75-.98-1.75-1.01s.83-.66,1.52-.78c.69-.13,1.65.29,2.07.5.1.05.19.09.27.12l-.05.18s-.07,0-.11.02c-.22.09-.95,1.03-1.95.97h0Z"
      style="fill:transparent" />
   <path d="M47.92,57.15l-7.08,3.44.04-.07.39-.69,6.74-3.28c-.03.21-.06.41-.09.6Z" style="fill:#fdfdfd;" />
   <path d="M40.84,60.59l-.22-.45.65-.31-.39.69-.04.07h0s0,0,0,0Z" style="fill:#fffdfe;" />
   <path d="M39.6,1.92l1.1,1.62c-.23-.04-.46-.09-.69-.12l-.83-1.21s.41-.28.41-.28Z" style="fill:#ecedf6;" />
   <path
      d="M39.27,34.14c.62.89.72,1.57.87,2.35.11.58.18,1.38.21,1.73-.11-.07-.23-.14-.35-.19-.72-.34-.82-.46-.79-.53.03-.07.54-.42.38-1.06s-1.09-2.39-2.49-2.09c0,0-.13-4.48.01-4.99,0-.02.01-.04.02-.06.11-.27.45-.54.84-.88l.1.05s.15-.05.4-.05c-.28.2-.66.55-.67.6-.01.05-.12,2.15.09,2.94.21.79.76,1.3,1.37,2.2h0Z"
      style="fill:url(#e);" />
   <path
      d="M40.01,3.41c-1.13-.19-2.27-.32-3.42-.39-.06-1.02-.91-1.82-1.93-1.82v-.56c5.96,0,11.56,1.54,16.43,4.24,3.17,1.76,6.05,4.01,8.51,6.67l-.64-.08c-.74-.1-1.72-.18-2.73-.08-4.34-4.02-9.73-6.74-15.54-7.86l-1.1-1.62-.41.28s.83,1.21.83,1.21Z"
      style="fill:#ecedf6;" />
   <path
      d="M46.13,28.36l-.02-.12-2.72-.25c-.28.31-.77.79-1.3,1.05-.75.36-1.84-.27-2.29-.57s-.98-.3-1.26-.11l-.08.05c.68-.01,1.05.41,1.76.96.71.55,1.38.75,2.3.36.92-.39,2.94-1.16,2.94-1.16,0,0-.79,1.75-2.24,4.49-1.45,2.74-1.76,4.37-1.85,4.9-.06.34.1.63.22.8.09-.35.31-.73.65-1.27.15-.23.31-.49.5-.78.83-1.29,2.38-3.87,2.78-4.67.28-.55.55-1.48.63-2.42.04-.41.03-.83-.03-1.24Z"
      style="fill:url(#f);" />
   <path
      d="M45.47,28.56s-.79,1.75-2.24,4.49c-1.45,2.74-1.76,4.37-1.85,4.9-.06.34.1.63.22.8-.04.14-.06.28-.05.43,0,0-.59-.57-1.2-.96-.03-.35-.1-1.15-.21-1.73-.15-.77-.25-1.45-.87-2.35-.61-.89-1.15-1.4-1.37-2.19-.21-.79-.1-2.89-.09-2.94.01-.05.39-.39.67-.6.68-.01,1.05.41,1.76.96s1.38.75,2.3.36c.92-.39,2.93-1.16,2.93-1.16Z"
      style="fill:#f6f6f6;" />
   <path
      d="M39.72,27.42s.74.95,1.75,1.01c1.01.06,1.73-.88,1.95-.97.03-.01.07-.02.11-.02.14,0,.18.15.09.28-.03.05-.11.15-.23.28-.28.32-.77.79-1.3,1.05-.75.36-1.84-.27-2.29-.57-.45-.3-.98-.3-1.26-.11-.03.02-.05.03-.08.05-.25,0-.36.03-.4.05l-.09-.05c.31-.26.65-.57.95-.96.71-.93,1.69-1.39,2.32-1.43.64-.03,1.02.1,1.8.53.78.43.94.5.9.65-.03.11-.14.13-.38.05-.09-.03-.18-.07-.27-.12-.43-.2-1.38-.62-2.07-.5-.69.13-1.52.75-1.52.78h0Z"
      style="fill:url(#g);" />
   <path
      d="M50,33.01c.21,2.41.61,6.37,2.13,10.17,1.42,3.55,5.18,5.74,8.64,5.83-.1.43-.04.88.14,1.27l-6.77,3.29c.69-2.1,1.23-3.82,1.23-3.82,0,0-.62-.03-1.46-.18-.68-.12-1.34-.3-1.98-.56-.18-.07-.36-.15-.53-.24-1.44-.67-2.87-1.66-2.87-1.66,0,0,.04,5.46-.52,9.43l-6.74,3.28c.47-.84,1.26-2.27,1.84-3.39.86-1.68,2.22-3.66,2.83-6.07.62-2.41.79-6.73,0-8.82-.79-2.09-3.03-3.49-3.31-3.4-.28.09,1.34,4.25,1.34,4.25,0,0-.5-.95-2.11-2.38-1.61-1.43-3.59-2.1-3.59-2.1-.47-.12-1.13.08-1.6.51s-1.24,1.08-1.96,1.1c-.02,0-.04,0-.05,0v-.7c.63-.07,1.5-.86,1.69-1.15.19-.29.2-.57.27-.57s.78.22,1.15.16c.37-.06.74-.38.86-.55.13-.17.11-.32-.23-.77-.34-.45-.78-.59-1.19-.29-.42.3-.9.47-.9.47,0,0-.25-.03-.25-1.79,0-1.52,0-3.44,0-5.22.3-.03.81.08,1.09.17,0,.02-.02.04-.02.06-.14.51-.02,4.99-.02,4.99,1.4-.3,2.34,1.45,2.49,2.09s-.35.99-.38,1.06c-.03.07.06.19.79.53.11.06.23.12.35.19.62.39,1.2.96,1.2.96,0-.14.02-.29.05-.43.09-.35.31-.73.65-1.27.15-.23.31-.49.5-.79.83-1.29,2.38-3.87,2.78-4.67.28-.55.55-1.48.63-2.42h0c.04-.42.03-.85-.03-1.24l-.02-.12c-.09-.43-.19-.85-.32-1.26-.42-1.43-1.08-3.25-1.35-3.97-.38-1-1.2-4.54-4.26-7.09-2.48-2.07-4.75-2.31-5.53-2.32v-5.2h.27v2.72s2.36.45,5.54,2.63c2.38,1.63,5.42,3.7,8.9,4.92h0c1.17.41,2.39.72,3.65.88l-.19-.17h7.93c.17.43.5.78.91.99l-.21.32-6.96,10c-.47-2.51-.79-4.81-1.14-6.53-.71-3.47-.82-4.02-.82-4.02,0,0-.93.01-2.24-.2-.88-.14-1.93-.38-2.98-.8l-.13-.05c-2.61-1.07-3.49-1.58-3.51-1.6.05.06,2.97,3.98,3.67,8.4.15.91.23,1.78.26,2.62.15,3.25-.36,6.01-.36,8.76,0,3.46,1.49,9.94,8.26,11.09,0,0-.46-.44-1.46-1.34-1-.9-2.56-3.54-3.23-6.23-.67-2.69-.9-4.13-1.03-7.56-.08-2.05-.12-4.38-.11-5.25"
      style="fill:url(#h);" />
   <path
      d="M40.01,3.41l3.28,4.81c-1.98-1.42-4.6-2.41-8.37-2.49v2.1h-.26s0,0,0,0v-2.76c1.07,0,1.94-.87,1.94-1.94,0-.04,0-.07,0-.11,1.15.07,2.29.2,3.42.39h0Z"
      style="fill:transparent;" />
   <path
      d="M33.44,3.13c0,.67.55,1.22,1.22,1.22s1.22-.55,1.22-1.22c0-.67-.55-1.22-1.22-1.22-.67,0-1.22.55-1.22,1.22h0ZM34.66,1.2c1.07,0,1.93.87,1.94,1.93,0,1.07-.87,1.93-1.94,1.93-1.07,0-1.94-.87-1.94-1.94,0-.04,0-.07,0-.11.06-1.02.91-1.82,1.93-1.82Z"
      style="fill:#ffffff;" />
   <path
      d="M36.42,66.43s4.74-.32,7.67-2.13c2.93-1.81,5.14-4.48,5.86-7.53.05-.21.1-.44.15-.67l2.5-1.21c-.49,1.54-1.12,3.16-1.9,4.53-.05.09-.1.17-.15.26-1.29,2.14-3.39,4.09-6.13,5.37t0,0c-2.63.85-5.36,1.35-8.12,1.48l.13-.1h0Z"
      style="fill:url(#i);" />
   <path d="M36.29,66.53l.3-.02c2.66-.15,5.29-.65,7.82-1.46-2.31,1.08-5.06,1.68-8.15,1.5h0s.02-.01.03-.02h0Z"
      style="fill:url(#j);" />
   <path
      d="M34.66,1.91c.67,0,1.22.55,1.22,1.22,0,.67-.55,1.22-1.22,1.22-.67,0-1.22-.55-1.22-1.22,0-.67.55-1.22,1.22-1.22Z"
      style="fill:#ffffff;" />
   <path d="M34.67,7.83h.26v.58h-.26s0,0,0,0v-.57h0Z" style="fill:transparent;" />
   <path
      d="M34.66.64v.56c-1.03,0-1.88.81-1.93,1.82-1.15.07-2.29.2-3.42.39l.83-1.21-.41-.28-1.1,1.62c-5.81,1.12-11.19,3.84-15.54,7.86-1-.1-1.98-.02-2.73.08-.22.03-.45.07-.67.11C15.9,4.86,24.79.64,34.66.64h0Z"
      style="fill:#ecedf6;" />
   <path
      d="M34.66,0v.64C24.79.64,15.9,4.86,9.68,11.59c-.97,1.05-1.87,2.15-2.7,3.31l-.62-.27c1.13-1.6,2.4-3.09,3.79-4.48,3.16-3.16,6.9-5.68,11.02-7.42C25.43.92,30.02,0,34.66,0Z"
      style="fill:#2702ff;" />
   <path
      d="M29.3,3.41c1.13-.19,2.27-.32,3.42-.39-.06,1.07.76,1.98,1.82,2.04.04,0,.07,0,.11,0v2.76h-.26s0-2.09,0-2.09c-3.76.07-6.39,1.07-8.37,2.49l3.28-4.81h0Z"
      style="fill:transparent;" />
   <path d="M34.65,7.83h0v.57h-.26s0-.56,0-.56h.26s0,0,0,0Z" style="fill:transparent;" />
   <path
      d="M45.79,26.98c-.42-1.43-1.08-3.25-1.35-3.97-.38-1-1.2-4.54-4.26-7.09-2.48-2.07-4.75-2.31-5.53-2.32-.77.02-3.04.25-5.53,2.32-3.07,2.55-3.88,6.09-4.26,7.09-.27.72-.93,2.54-1.35,3.97.46-.36,1.38-1.01,2.47-1.35-.15-.34-.45-1.21-.24-2.38.27-1.51,1.29-3.68,2.74-5.33,1.4-1.59,4.23-2.75,6.17-2.79,1.94.05,4.78,1.2,6.17,2.79,1.45,1.65,2.47,3.82,2.74,5.33.21,1.17-.09,2.04-.24,2.38,1.08.35,2,.99,2.46,1.35Z"
      style="fill:url(#k);" />
   <path
      d="M43.57,23.24c-.27-1.51-1.29-3.68-2.74-5.33-1.4-1.59-4.23-2.75-6.17-2.79v9.5c-.1,1.07-.31,1.79-.49,3.36-.24,2.17-.1,6.87-.1,8.39,0,.85.2,1.69.58,2.45h0c.63-.06,1.5-.85,1.69-1.14.19-.29.2-.57.27-.57s.78.22,1.15.16c.37-.06.74-.38.86-.55.13-.17.11-.32-.23-.77-.34-.45-.78-.59-1.19-.29-.42.3-.9.47-.9.47,0,0-.25-.03-.25-1.79,0-1.52,0-3.44,0-5.22v-.85c0-2,.59-2.62,1.25-2.78.67-.17,2.83-.22,4.89-.08.39.03.77.11,1.13.23.15-.33.45-1.21.24-2.38Z"
      style="fill:#fdfdfd;" />
   <path
      d="M26.75,54.14c-.03,1.31,0,1.93.23,2.62-.86-1.37-1.37-8.86-1.13-10.64.04-.31.14-.6.27-.88.64-1.35,2.16-2.36,2.85-2.84.83-.57,2.24-1.58,3.49-1.58s2.19.69,2.19.69v1.08s-.64-.66-2.13-.76c-1.41-.1-2.9.98-3.86,2.31-.06.08-.11.16-.16.24-.94,1.43-1.14,2.69-1.22,4.26-.09,1.55-.15,2.85-.15,2.89h0s-.34,1.08-.38,2.63Z"
      style="fill:#162653;" />
   <path
      d="M36.79,41.82c-1.5.11-2.13.76-2.13.76,0,0-.64-.66-2.13-.76-1.41-.1-2.9.98-3.86,2.31.18.22.67.65,1.7.69,1.36.04,2.65-.62,2.69-.63h0s.67.55,1.6.63c.58-.06,1.14-.28,1.6-.63.04.02,1.33.68,2.69.64,1.03-.03,1.52-.47,1.7-.69-.95-1.33-2.44-2.41-3.86-2.31Z"
      style="fill:#ffffff;" />
   <path
      d="M35.85,46.45c-.19-.21-.55-.52-1.19-.59-.65.06-1,.37-1.19.59-.16.17-.29.29-.48.49h3.35c-.19-.2-.32-.31-.48-.49Z"
      style="fill:url(#l);" />
   <path
      d="M34.66,62.94c.3,0,.66.1,1.3.35,1.09.42,1.94.69,2.2.78-.79,1.28-1.76,1.95-1.76,1.95,0,0-.49.47-1.31.55h0c-.14.01-.29.01-.43,0-.15.01-.29.01-.43,0h0c-.82-.08-1.31-.55-1.31-.55,0,0-.97-.67-1.76-1.95.74-.24,1.48-.5,2.2-.78.64-.25,1-.34,1.3-.35h0Z"
      style="fill:#4f00ec;" />
   <path
      d="M34.39,10.35v.77s-2.36.45-5.54,2.63c-2.38,1.63-5.42,3.7-8.9,4.92,1.24-.65,2.48-1.53,4.07-2.77,1.58-1.24,2.62-2.28,5.07-3.91,2.16-1.45,4.74-1.62,5.31-1.64Z"
      style="fill:#ff8701;" />
   <path
      d="M27,11.72c-.75.6-1.46,1.25-2.12,1.95.57-.78,1.24-1.49,1.94-2.16.71-.67,1.48-1.27,2.29-1.81.41-.27.83-.52,1.27-.74.44-.22.89-.42,1.35-.59.12-.04.24-.08.35-.12.06-.02.12-.04.18-.06l.18-.05c.12-.03.24-.07.36-.09l.36-.08c.12-.02.24-.04.37-.06l.19-.03c.06,0,.12-.01.19-.02.12-.01.25-.02.37-.03h.12s0,.56,0,.56h-.08s-.35.03-.35.03c-.06,0-.12.01-.17.02l-.17.02c-.12.02-.23.03-.35.06-.46.08-.91.21-1.36.35-.44.15-.88.33-1.31.53-.21.1-.42.21-.63.32-.21.11-.42.23-.62.35-.41.24-.81.51-1.2.78-.39.27-.77.56-1.15.86h0Z"
      style="fill:transparent;" />
   <path
      d="M36.99,47.68c-.1-.12-.23-.26-.38-.44-.09-.11-.18-.21-.28-.31h-3.35c-.1.1-.19.2-.28.31-.15.18-.28.33-.38.44,0,0-.26,2.08,0,3.26.27,1.18,1.03,2.06,1.57,3.29.12.27.22.55.29.84.28.99.34,1.92.46,2.1.12-.18.19-1.11.46-2.1.02-.08.05-.16.07-.24.06-.2.14-.4.22-.6.54-1.24,1.3-2.11,1.57-3.29.27-1.18,0-3.26,0-3.26Z"
      style="fill:#fffdfe;" />
   <path
      d="M38.66,50.45c-.31-1.32-1.1-2.29-1.31-2.44-.13-.1-.25-.21-.35-.33,0,0,.26,2.08,0,3.26-.27,1.18-1.03,2.06-1.57,3.29-.12.27-.22.55-.29.84-.28.99-.34,1.92-.46,2.1-.12-.18-.19-1.11-.46-2.1-.08-.29-.18-.57-.29-.84-.54-1.24-1.3-2.11-1.57-3.29-.27-1.18,0-3.26,0-3.26-.13.15-.24.25-.35.33-.2.14-1,1.11-1.31,2.44-.08.34-.1.7-.05,1.04h0c.07.59.3,1.13.57,1.68.13.27.26.54.39.81.47,1.02,2.61,4.5,3.09,5.27.48-.77,2.62-4.25,3.09-5.27.13-.27.26-.54.39-.81.26-.55.49-1.1.57-1.68.04-.33.03-.68-.05-1.04Z"
      style="fill:url(#m);" />
   <path
      d="M25.35,27.2c.03.12.15.13.41.03l.02.2c-.14,0-.17.15-.09.28.03.05.11.15.23.28l-2.72.25c.06-.34.18-.78.32-1.26.46-.36,1.38-1.01,2.47-1.35.36-.12.75-.2,1.14-.23,2.05-.14,4.22-.09,4.89.08.67.16,1.25.78,1.25,2.79,0,.28,0,.56,0,.85-.3-.03-.81.08-1.09.17-.1-.26-.41-.51-.78-.82-.32-.27-.69-.6-1.01-1.01-.71-.93-1.68-1.39-2.32-1.42-.64-.03-1.02.1-1.8.53-.79.43-.94.5-.9.65Z"
      style="fill:url(#n);" />
   <path
      d="M27.48,53.66c.29,1.39,4.92,5.8,5.61,6.35.7.56.54.96,0,1.07-.45.09-2.88.29-3.62.34-.38-.63-.73-1.27-1.06-1.93-.54-1.08-.96-1.79-1.28-2.36h0c-.05-.13-.1-.25-.14-.38-.22-.69-.26-1.3-.23-2.62.03-1.55.37-2.63.37-2.63.09-.18.21-.4.35-.64-.01.07-.28,1.43,0,2.78h0Z"
      style="fill:#250ef0;" />
   <path
      d="M19.64,27.92c.02.87-.03,3.29-.11,5.34-.13,3.43-.36,4.87-1.03,7.56-.67,2.69-2.23,5.33-3.23,6.23-1,.9-1.46,1.34-1.46,1.34,6.77-1.15,8.26-7.63,8.26-11.09,0-2.75-.51-5.51-.36-8.76.04-.84.12-1.71.26-2.62.7-4.42,3.62-8.34,3.67-8.4-.03.01-.9.52-3.51,1.59l-.13.05c-1.05.42-2.1.66-2.98.8-1.31.21-2.25.2-2.25.2,0,0-.11.55-.82,4.02-.34,1.69-.65,3.92-1.11,6.36l-6.84-9.83-.25-.38c.36-.21.64-.54.8-.93h7.93c-.12.11-.19.17-.19.17,1.25-.17,2.47-.46,3.65-.88,3.48-1.21,6.52-3.29,8.9-4.92,3.18-2.18,5.54-2.63,5.54-2.63v-2.72h.26s0,0,0,0v5.2c-.77.01-3.04.25-5.53,2.32-3.07,2.56-3.89,6.09-4.26,7.09-.27.72-.93,2.54-1.35,3.97-.14.49-.26.93-.32,1.26,0,.04-.01.08-.02.12-.06.41-.07.83-.03,1.24.08.94.36,1.87.63,2.42.4.8,1.95,3.37,2.78,4.67.19.3.36.56.5.78.34.54.56.92.65,1.27.04.15.06.28.05.43,0,0,.58-.57,1.2-.96.12-.07.23-.14.35-.19.72-.34.82-.46.79-.53-.03-.07-.54-.42-.39-1.06.15-.64,1.09-2.39,2.49-2.09,0,0,.13-4.48-.02-4.99,0-.02-.01-.04-.02-.06.28-.1.79-.2,1.09-.17,0,1.78,0,3.71,0,5.22,0,1.76-.25,1.79-.25,1.79,0,0-.48-.17-.9-.47-.42-.3-.85-.16-1.19.29-.34.45-.35.6-.23.77.12.17.49.49.86.55.37.06,1.07-.16,1.15-.16s.08.28.27.57c.18.29,1.06,1.08,1.69,1.15v.7s-.04,0-.05,0c-.72-.02-1.49-.66-1.96-1.1-.47-.43-1.12-.64-1.6-.52,0,0-1.98.66-3.59,2.1-1.61,1.43-2.11,2.38-2.11,2.38,0,0,1.61-4.16,1.34-4.25s-2.52,1.31-3.31,3.4c-.79,2.09-.62,6.41,0,8.82.61,2.41,1.97,4.39,2.84,6.07.59,1.14,1.21,2.27,1.84,3.39l-6.75-3.28c-.56-3.97-.52-9.43-.52-9.43,0,0-1.43.98-2.87,1.66-.18.08-.36.16-.53.24-.64.25-1.31.44-1.98.56-.84.15-1.46.18-1.46.18,0,0,.55,1.72,1.23,3.82l-6.77-3.29c.19-.39.24-.84.15-1.27,3.47-.09,7.22-2.28,8.64-5.83,1.52-3.8,1.92-7.76,2.13-10.17"
      style="fill:url(#o);" />
   <path
      d="M30.92,35.94c.34-.45.78-.59,1.19-.29.42.3.9.47.9.47,0,0,.25-.03.25-1.79,0-1.52,0-3.44,0-5.22v-.85c0-2-.59-2.62-1.25-2.79-.67-.16-2.84-.22-4.89-.08-.39.03-.77.1-1.14.23-.15-.34-.45-1.21-.24-2.38.27-1.51,1.29-3.68,2.74-5.33,1.4-1.59,4.23-2.75,6.17-2.79v9.5c-.1,1.07-.31,1.79-.49,3.36-.24,2.17-.1,6.87-.1,8.39,0,.85.2,1.69.58,2.45h0c-.63-.06-1.5-.85-1.69-1.14-.19-.29-.2-.57-.27-.57s-.78.22-1.15.16c-.37-.06-.73-.38-.86-.55-.12-.17-.11-.32.23-.77Z"
      style="fill:#ddd3c0;" />
   <path d="M33.06,66.54c-3.09.18-5.85-.42-8.15-1.5,2.63.85,5.36,1.35,8.12,1.48l.03.02Z" style="fill:url(#p);" />
   <path
      d="M19.22,56.09l2.18,1.06c.1.61.22,1.18.35,1.66,1,3.58,6.01,6.4,9.26,5.87.6.77,1.26,1.43,1.89,1.75,0,0-4.74-.32-7.67-2.14-2.93-1.81-5.14-4.48-5.86-7.53-.05-.21-.1-.44-.15-.67Z"
      style="fill:url(#q);" />
   <path
      d="M25.76,27.23c-.26.1-.38.08-.41-.03-.04-.15.12-.22.9-.65.79-.43,1.16-.56,1.8-.53.64.03,1.61.5,2.32,1.43.32.42.69.74,1.01,1.01h-.15s-.14-.05-.41-.06c-.03-.02-.05-.04-.08-.05-.28-.19-.81-.19-1.26.11-.45.3-1.54.93-2.29.57-.53-.25-1.02-.73-1.3-1.05-.08-.09-.16-.18-.23-.28-.09-.13-.05-.28.09-.28.03,0,.07,0,.11.02.22.09.95,1.04,1.95.98,1.01-.06,1.75-.98,1.75-1.01,0-.03-.83-.65-1.52-.78-.69-.13-1.65.29-2.07.5-.08.04-.16.07-.23.1Z"
      style="fill:url(#r);" />
   <path
      d="M31.4,28.46c.37.31.67.56.78.82,0,.02.02.04.02.06.14.51.02,4.99.02,4.99-1.4-.3-2.34,1.45-2.49,2.09-.15.64.35.99.39,1.06.03.07-.07.19-.79.53-.11.06-.23.12-.35.19.03-.35.09-1.15.21-1.73.15-.77.25-1.45.87-2.35.61-.89,1.15-1.4,1.37-2.19.21-.79.1-2.89.09-2.94-.01-.05-.39-.39-.67-.6.27,0,.38.03.41.06,0,0,.15,0,.15,0Z"
      style="fill:url(#s);" />
   <path
      d="M31.51,29c.01.05.12,2.15-.09,2.94-.21.79-.75,1.3-1.37,2.19-.61.89-.72,1.57-.87,2.35-.11.58-.18,1.38-.21,1.73-.62.39-1.2.96-1.2.96,0-.14-.02-.29-.05-.43.12-.16.27-.45.22-.8-.09-.53-.39-2.16-1.85-4.9-1.45-2.74-2.24-4.49-2.24-4.49,0,0,2.01.77,2.93,1.16.92.39,1.59.19,2.3-.36.71-.55,1.08-.97,1.76-.96.28.2.66.55.67.6Z"
      style="fill:#c8c090;" />
   <path
      d="M36.22,60.02c.7-.56,5.32-4.97,5.61-6.35.28-1.35.01-2.71,0-2.78h0c-.23-.39-.49-.77-.78-1.13-.14-.17-.27-.34-.41-.51l-.31-.39c-.73-.91-1.53-1.86-2.73-2.93-1-.9-1.28-1.45-1.35-1.74h0s-.67.56-1.6.63c-.93-.08-1.6-.63-1.6-.63h0c-.07.29-.35.84-1.35,1.74-1.2,1.07-2,2.02-2.73,2.93-.1.13-.21.26-.31.39-.14.17-.27.34-.41.51-.28.36-.54.73-.78,1.12-.01.07-.28,1.43,0,2.78.29,1.39,4.92,5.8,5.61,6.35.7.56.54.96,0,1.07-.45.09-2.88.29-3.62.34.61,1.02,1.16,1.79,1.67,2.62h0c.74-.22,1.48-.48,2.2-.76.64-.25,1-.34,1.3-.35.3,0,.66.1,1.3.35,1.09.42,1.94.69,2.2.78h0c.51-.85,1.06-1.61,1.67-2.63-.74-.06-3.17-.25-3.62-.34-.53-.11-.7-.51,0-1.07h0ZM34.66,59.26c-.48-.77-2.62-4.25-3.09-5.27-.13-.27-.26-.54-.39-.81-.26-.55-.49-1.1-.57-1.68-.05-.35-.03-.7.05-1.04.31-1.32,1.1-2.29,1.31-2.44.11-.08.22-.18.35-.33.1-.12.23-.26.38-.44.11-.12.2-.22.28-.31.19-.19.32-.31.48-.49.19-.21.55-.52,1.19-.59.65.06,1,.37,1.19.59.16.17.29.29.48.49.08.08.17.19.28.31.15.18.28.33.38.44.13.15.24.25.35.33.2.14,1,1.11,1.31,2.44.08.37.09.71.05,1.04h0c-.07.59-.31,1.13-.57,1.68-.13.27-.26.54-.39.81-.47,1.02-2.61,4.5-3.09,5.27h0Z"
      style="fill:transparent" />
   <path d="M31.01,64.68c-3.25.54-8.25-2.29-9.26-5.87-.15-.55-.27-1.1-.35-1.66l7.08,3.44c.21.41,1.26,2.49,2.53,4.09Z"
      style="fill:transparent" />
   <path
      d="M24.9,65.05h0c-2.73-1.28-4.84-3.24-6.12-5.37-.05-.08-.1-.17-.15-.26-.78-1.37-1.41-2.99-1.9-4.53l2.49,1.21c.05.23.1.46.15.67.72,3.06,2.93,5.72,5.86,7.53,2.93,1.81,7.67,2.13,7.67,2.13l.13.1c-.1,0-.2-.01-.3-.02-2.66-.15-5.29-.65-7.82-1.46Z"
      style="fill:url(#t);" />
   <path d="M30.13,2.2l-.83,1.21c-.23.04-.46.08-.69.12l1.1-1.62.41.28h0Z" style="fill:#ecedf6;" />
   <path d="M29.3,3.41l-3.28,4.81c-.5.36-.97.75-1.4,1.16l3.99-5.85c.23-.05.46-.09.69-.12Z" style="fill:#fffffb;" />
   <path
      d="M28.08,26.63c.69.13,1.52.75,1.52.78s-.74.95-1.75,1.01c-1.01.06-1.73-.88-1.95-.98-.03-.01-.07-.02-.11-.02l-.02-.2c.07-.03.15-.06.24-.1.43-.2,1.39-.62,2.07-.5Z"
      style="fill:transparent" />
   <path
      d="M42.19,51.52s-.06-1.34-.15-2.89c-.09-1.57-.28-2.83-1.22-4.26-.05-.08-.11-.16-.16-.24-.18.22-.67.65-1.7.69-1.35.04-2.65-.62-2.69-.63.07.29.35.84,1.35,1.74,1.2,1.07,2,2.02,2.73,2.93.1.13.21.26.31.39.14.17.27.34.41.51.31.39.57.78.78,1.12.14.24.26.45.35.64Z"
      style="fill:#f7b41e;" />
   <path
      d="M30.37,44.82c-1.03-.03-1.52-.47-1.7-.69-.06.08-.11.16-.16.24-.94,1.43-1.14,2.69-1.22,4.26-.09,1.55-.15,2.85-.15,2.89.09-.18.21-.4.35-.64.23-.39.49-.77.78-1.13l.41-.51c.1-.13.21-.26.31-.39.73-.91,1.54-1.86,2.73-2.93,1-.9,1.28-1.45,1.35-1.74-.04.02-1.33.68-2.69.63h0Z"
      style="fill:url(#u);" />
   <path d="M28.7,60.14l-.22.45h0s-.02-.05-.04-.08l-.39-.69.65.32h0Z" style="fill:#fdfdfd;" />
   <path
      d="M28.61,3.54l-3.99,5.85c-.27.25-.52.51-.76.78l-15.49,7.43c-.08-.13-.18-.25-.29-.35,1.42-2.15,3.09-4.11,4.99-5.86,4.34-4.02,9.73-6.74,15.54-7.86h0Z"
      style="fill:#272742;" />
   <path
      d="M28.05,59.82l.39.69.04.07-7.08-3.44c-.03-.2-.06-.4-.09-.6l6.74,3.27ZM31.05,37.92s1.3.75,1.43.85c.13.1.26.26-.2.5-.46.24-4.39,2.91-5.48,4.69-.25.4-.48.83-.68,1.26-.71,1.5-1.15,3.17-1.01,4.81.18,2.12.86,4.55,1.26,5.59.2.52.44.94.76,1.51h0c.33.57.74,1.28,1.28,2.36.11.22.22.43.32.62l-.03.02-.65-.31c-.63-1.12-1.24-2.25-1.84-3.39-.86-1.68-2.22-3.66-2.84-6.07-.61-2.41-.79-6.73,0-8.82.79-2.09,3.03-3.49,3.31-3.4.28.09-1.34,4.25-1.34,4.25,0,0,.5-.95,2.11-2.38,1.6-1.43,3.59-2.1,3.59-2.1Z"
      style="fill:#fdfdfd;" />
   <path
      d="M29.08,29.36c.71-.55,1.08-.97,1.76-.96-.03-.02-.05-.04-.08-.05-.28-.19-.81-.19-1.26.11-.45.3-1.54.93-2.29.57-.53-.25-1.02-.73-1.3-1.05l-2.72.25-.02.12c-.06.39-.07.82-.03,1.24.08.94.36,1.87.63,2.42.4.8,1.95,3.37,2.78,4.67.19.3.36.56.5.78.34.54.56.92.65,1.27.12-.16.27-.45.22-.8-.09-.54-.39-2.16-1.85-4.9-1.45-2.74-2.24-4.49-2.24-4.49,0,0,2.01.77,2.93,1.16.92.39,1.59.19,2.3-.36h0Z"
      style="fill:#05b5cc;" />
   <path
      d="M42.52,43.96c-1.09-1.78-5.02-4.45-5.48-4.69-.46-.24-.33-.4-.2-.5.13-.1,1.43-.85,1.43-.85-.47-.12-1.13.08-1.6.52s-1.24,1.08-1.96,1.1h-.11c-.72-.02-1.49-.66-1.96-1.1-.47-.43-1.12-.64-1.6-.52,0,0,1.3.75,1.43.85.13.1.26.26-.2.5-.46.24-4.39,2.91-5.48,4.69-.25.41-.48.83-.68,1.26h.02c.64-1.34,2.16-2.35,2.85-2.83.83-.57,2.24-1.58,3.49-1.58s2.19.69,2.19.69c0,0,.94-.69,2.19-.69s2.66,1.01,3.49,1.58c.69.47,2.21,1.49,2.85,2.84h.02c-.21-.44-.44-.87-.69-1.27Z"
      style="fill:url(#v);" />
   <path
      d="M25.86,46.12c-.24,1.78.26,9.28,1.13,10.64.04.12.09.25.14.38-.33-.56-.57-.99-.76-1.51-.4-1.04-1.08-3.47-1.26-5.59-.14-1.64.3-3.31,1.01-4.81h.02c-.14.29-.23.58-.27.89h0Z"
      style="fill:url(#w);" />
   <path d="M26.03,8.23l-1.48,2.17-1.47.7c.25-.32.51-.63.79-.93l.34-.16.42-.62c.43-.41.89-.8,1.4-1.16Z"
      style="fill:#ffffff;" />
   <path
      d="M22.12,19.1c2.61-1.07,3.49-1.58,3.51-1.6-.05.06-2.97,3.98-3.67,8.4-.14.87-.23,1.74-.26,2.62-.62.2-1.36.29-2.08.34,0-.58,0-.88,0-.88,0,0,.13-3.1.88-5.48.52-1.68,1.16-2.82,1.49-3.35,0,0,.13-.05.13-.05Z"
      style="fill:#8e485f;" />
   <path d="M24.63,9.39l-.42.62-.34.16c.24-.27.49-.53.76-.78Z" style="fill:#ffffff;" />
   <path
      d="M8.59,18.05l14.48-6.95c-.69.88-1.3,1.79-1.88,2.67-1.21,1.85-2.61,3.56-4.18,5.12h-8.34c.03-.28,0-.57-.08-.83Z"
      style="fill:#272742;" />
   <path
      d="M19.02,19.95c.88-.14,1.93-.38,2.98-.8-.33.53-.97,1.67-1.49,3.35-.74,2.38-.87,5.48-.87,5.48,0,0-.01.34-.04.89-.99.06-1.93,0-2.43-.03.46-4.54,1.58-8.05,1.86-8.89Z"
      style="fill:#dd5a79;" />
   <path
      d="M21.71,28.53c-.15,3.26.36,6.01.36,8.76,0,3.46-1.49,9.94-8.26,11.09,0,0,.46-.44,1.46-1.34,1-.9,2.56-3.54,3.23-6.23.67-2.69.9-4.13,1.03-7.56.08-2.05.1-3.53.11-4.39.71-.04,1.45-.14,2.08-.34h0Z"
      style="fill:#2b66ab;" />
   <path d="M21.4,57.15l-2.18-1.06c-.04-.2-.09-.41-.13-.62l2.22,1.08c.03.21.06.41.09.6h0Z" style="fill:#fdfdfd;" />
   <path d="M21.31,56.55l-2.22-1.08c-.52-2.5-1.01-5.64-1.17-6.69,1.44-.67,2.87-1.66,2.87-1.66,0,0-.04,5.46.52,9.43h0Z"
      style="fill:#2b21eb;" />
   <path d="M19.22,56.09l-2.5-1.21c-.07-.22-.14-.44-.2-.65l2.57,1.25.13.62h0Z" style="fill:#fdfdfd;" />
   <path
      d="M16.77,20.15s.93.01,2.25-.2c-.28.83-1.4,4.34-1.86,8.89v.05c-.53,5.24-1.46,8.48-2.15,10.74-.64,2.12-3.37,7.24-7.61,8.03-.15-.06-.32-.11-.48-.13v-.78c1.31-1.19,4.29-4.2,5.8-8.16.78-2.05,1.34-4.2,1.78-6.26l.45.7.98-.95-1.08-1.55c.46-2.44.77-4.67,1.11-6.36.7-3.47.82-4.02.82-4.02Z"
      style="fill:#ffffff;" />
   <path
      d="M18.63,59.41c.05.09.1.17.15.26-.36.26-1.13.81-1.18.79l-.17-.44c-.52-1.26-1.33-3.64-2.04-5.79l1.34.65c.49,1.54,1.12,3.16,1.91,4.53Z"
      style="fill:#ffffff;" />
   <path
      d="M17.16,28.84c.5.04,1.44.09,2.43.03-.05.97-.14,2.6-.27,4.15-.21,2.41-.61,6.37-2.13,10.17-1.42,3.55-5.18,5.74-8.64,5.83-.14-.61-.57-1.12-1.15-1.36,4.25-.79,6.97-5.91,7.61-8.03.69-2.26,1.62-5.5,2.15-10.74,0-.02,0-.03,0-.05Z"
      style="fill:url(#x);" />
   <path
      d="M17.92,48.78c.16,1.05.65,4.19,1.17,6.69l-2.57-1.25c-.46-1.53-.83-3.09-1.12-4.66.6-.11,1.32-.28,1.98-.56.18-.07.35-.15.53-.23Z"
      style="fill:#3858d6;" />
   <path
      d="M15.39,54.23c.71,2.15,1.52,4.53,2.04,5.79l.17.44s-3.9-1.64-6.04-3.83c-.07-.07-.14-.15-.21-.22l-.02-.02c-1.48-1.59-2.79-3.32-3.91-5.17.27-.12.51-.29.7-.52,0,0,7.26,3.53,7.26,3.53Z"
      style="fill:transparent;" />
   <path d="M17.19,18.89v.5h-.71c.12-.11.3-.28.53-.5,0,0,.18,0,.18,0Z" style="fill:#ffffff;" />
   <path d="M8.68,18.89h8.34c-.23.22-.41.39-.53.5h-7.93c.07-.16.11-.33.13-.5Z" style="fill:#ff7f16;" />
   <path d="M16.72,54.88l-1.33-.65-.22-.66,1.35.65c.07.22.13.44.2.65h0Z" style="fill:#fdfdfd;" />
   <path
      d="M19.95,18.67c-1.18.42-2.41.71-3.65.88,0,0,.07-.06.19-.17h.71v-.5h-.18c.91-.89,2.56-2.65,4.18-5.12.58-.88,1.18-1.79,1.88-2.67l1.47-.7,1.48-2.18c1.98-1.42,4.6-2.41,8.37-2.49v2.1h-.12c-.12.01-.25.03-.37.04-.06,0-.12.01-.19.02l-.19.03c-.12.02-.25.03-.37.06l-.36.08c-.12.02-.24.06-.36.09l-.18.05c-.06.02-.12.04-.18.06-.12.04-.24.08-.35.12-.46.17-.92.37-1.35.59-.44.22-.86.47-1.27.74-.81.54-1.58,1.14-2.29,1.81-.7.67-1.37,1.38-1.94,2.16.67-.69,1.38-1.34,2.12-1.95.37-.3.75-.59,1.14-.86.39-.27.79-.54,1.2-.78.21-.12.41-.24.62-.35.62-.34,1.27-.62,1.94-.85.45-.14.9-.27,1.36-.35.11-.02.23-.04.35-.06l.17-.03c.06,0,.12-.01.17-.02.12-.01.23-.02.35-.03h.08s0,1.94,0,1.94c-.57.02-3.15.19-5.31,1.64-2.44,1.64-3.48,2.68-5.06,3.92-1.58,1.24-2.82,2.12-4.07,2.77h0Z"
      style="fill:#ffffff;" />
   <path d="M14.85,30.53l1.08,1.55-.98.95-.45-.7c.13-.61.25-1.21.36-1.8Z" style="fill:#ffffff;" />
   <path d="M15.4,49.57c.14.78.51,2.61,1.12,4.66l-1.35-.65c-.69-2.1-1.23-3.82-1.23-3.82,0,0,.62-.03,1.46-.18Z"
      style="fill:#ffffff;" />
   <path d="M15.39,54.23l-7.26-3.53c.11-.13.2-.27.27-.42l6.77,3.29s.22.66.22.66Z" style="fill:#fdfdfd;" />
   <path
      d="M10.35,11.48c.74-.1,1.72-.18,2.73-.08-1.89,1.74-3.57,3.71-4.99,5.86-.45-.43-1.09-.61-1.7-.49.28-.49.67-1.06,1.1-1.64,1.04-1.44,2.31-2.98,2.87-3.64h0Z"
      style="fill:#ffffff;" />
   <path d="M11.56,56.64c2.14,2.18,6.04,3.82,6.04,3.82l.6,1.53c-2.44-1.48-4.68-3.28-6.64-5.35Z" style="fill:#069ebf;" />
   <path d="M9.68,11.59c.19-.04.41-.07.67-.11-.55.66-1.82,2.2-2.87,3.64l-.5-.22c.83-1.16,1.73-2.26,2.7-3.31Z"
      style="fill:#ffffff;" />
   <path
      d="M7.72,16.98c.41.24.72.62.87,1.07.28.86-.07,1.8-.84,2.26l-.24-.36-.62.59.03.04c-.17.02-.34,0-.51-.02-.22-.04-.43-.12-.62-.23-.44-.26-.77-.68-.9-1.17-.08-.3-.09-.61-.02-.92h0c.04-.19.11-.38.21-.55h0c.35-.6.99-.97,1.68-.97.34,0,.67.09.97.26h0ZM6.15,19.71s.09.05.14.07l.06.02s.04.02.07.02h0s.04.01.06.02c.02,0,.05.01.07.01.02,0,.04,0,.05,0h.04c.07.01.14.02.2,0,.02,0,.05,0,.07,0h.06s0,0,0,0c.01,0,.03,0,.04,0,.01,0,.02,0,.04,0,0,0,.01,0,.02,0h.02c.06-.02.12-.04.18-.07l.05-.02c.05-.03.11-.06.16-.09h0s.03-.03.04-.04c.06-.04.12-.1.16-.16.01-.01.02-.03.03-.04l.03-.04s.05-.08.08-.12c.01-.02.02-.04.03-.06.02-.05.04-.09.06-.14v-.04s.03-.03.03-.05v-.03s.02-.02.02-.03v-.03s.02-.08.02-.11c0-.02,0-.04,0-.06v-.06s0-.1,0-.15c0-.01,0-.02,0-.04,0-.04-.01-.07-.02-.11h0s-.01-.04-.01-.04c-.01-.04-.03-.09-.04-.13l-.03-.06s-.05-.1-.08-.14c-.03-.05-.06-.09-.1-.13l-.02-.03-.04-.04s-.04-.04-.06-.05h0s-.09-.08-.13-.11c-.57-.35-1.32-.18-1.68.4-.35.57-.18,1.32.4,1.68Z"
      style="fill:#ffffff;" />
   <path
      d="M7.39,47.66c.58.24,1.01.74,1.15,1.35.19.83-.18,1.68-.92,2.11-.59.34-1.31.35-1.9.02h0c-.31-.17-.57-.42-.75-.73-.16-.28-.25-.6-.26-.93-.02-.99.71-1.83,1.69-1.96h.07c.31-.04.63.01.92.13ZM5.93,48.46h0s-.04.03-.06.05c-.02.02-.04.03-.06.05-.02.02-.04.04-.06.06-.04.05-.08.1-.12.15h0s-.05.09-.08.14h0s-.03.07-.03.07c0,.03-.02.05-.03.07,0,.02-.01.04-.02.07v.02s-.02.04-.02.06h0c-.04.18-.03.37.02.55.03.1.07.21.12.3.23.4.66.63,1.12.61h.04s.05,0,.07-.01c.02,0,.04,0,.06,0h0s.05-.01.07-.02h.01s.04-.01.06-.02h.02s.07-.03.07-.03c.03-.01.05-.02.07-.03.05-.02.09-.05.13-.08h.02s.05-.05.05-.05h0s.04-.03.04-.03h0s.04-.03.06-.05c.09-.08.16-.18.22-.28.01-.02.02-.04.03-.06v-.02s.01,0,.01,0c0-.02.02-.04.02-.06.02-.04.03-.08.04-.13v-.05s.02-.02.02-.02v-.04s.01-.04.01-.04c0-.01,0-.03,0-.04.01-.09.01-.17,0-.26h0s0-.05,0-.05c0-.09-.03-.17-.06-.25,0-.02-.02-.04-.02-.06h0c-.06-.13-.13-.25-.23-.36l-.02-.02-.02-.02s-.08-.07-.12-.11c-.04-.03-.09-.06-.14-.09h0s-.02-.02-.03-.02c-.03-.02-.06-.03-.09-.04-.03,0-.05-.02-.07-.03,0,0,0,0,0,0-.02,0-.04-.01-.06-.02h-.03s-.03-.02-.05-.02c-.02,0-.03,0-.05,0,0,0-.01,0-.02,0-.03,0-.07-.01-.1-.01-.03,0-.05,0-.08,0-.04,0-.07,0-.11,0h-.03s-.04,0-.04,0c0,0-.01,0-.02,0-.02,0-.03,0-.05,0h0s-.03,0-.05.01c-.02,0-.04,0-.05.01-.01,0-.03,0-.04.01-.05.02-.1.04-.15.06-.07.03-.13.07-.19.12h0Z"
      style="fill:#fff;" />
   <path d="M8.38,17.6l15.49-7.43c-.28.31-.54.62-.79.93l-14.48,6.95c-.05-.16-.13-.31-.22-.45h0Z" style="fill:#fff;" />
   <path
      d="M7.73,17.92s.06.09.09.14c.02.03.03.06.05.09.03.06.05.12.07.19v.04s.01,0,.01,0v.06s.02.03.02.05c0,.04.01.07.01.11,0,.03,0,.05,0,.08,0,.02,0,.04,0,.06,0,.06,0,.11-.02.17,0,.01,0,.02,0,.03,0,.02,0,.04-.02.07,0,.02,0,.04-.02.05,0,.01,0,.03-.01.04-.02.05-.04.1-.06.14-.04.09-.1.18-.17.25-.03.04-.07.08-.11.11-.01.01-.02.02-.03.03l-.02.02-.04.03c-.05.04-.11.07-.16.1l-.05.02c-.06.03-.12.05-.18.07h-.02s-.01,0-.02,0h-.04s-.03.02-.04.02h-.06s-.05.01-.07.02c-.03,0-.05,0-.08,0-.02,0-.04,0-.06,0h-.04s-.02,0-.03,0c-.03,0-.06,0-.09-.01-.04,0-.09-.02-.13-.03h0s-.08-.03-.12-.05c-.62-.26-.91-.98-.65-1.6.09-.22.25-.41.46-.55.46-.3,1.06-.26,1.48.1h0s.06.06.06.06c.01.01.03.03.04.04l.02.03.04.05Z"
      style="fill:#ffffff;" />
   <path d="M7.95,18.92v-.03s0,.02,0,.03h0Z" style="fill:#ffffff;" />
   <path d="M7.51,19.95l.24.36c-.25.15-.54.25-.83.27l-.03-.04s.62-.59.62-.59Z" style="fill:#ffffff;" />
   <path d="M7.45,50.38h0ZM7.44,50.38s-.02.02-.04.03l.04-.03Z" style="fill:#ffffff;" />
   <path d="M7.17,48.34l.04.02-.04-.02Z" style="fill:#ffffff;" />
   <path
      d="M6.37,14.62l.62.27c-.54.76-1.06,1.54-1.54,2.34-.14.13-.26.28-.36.45h0c-.1.18-.17.36-.21.55h0C2.12,23.21.66,28.8.64,34.48c-.18-.16-.4-.28-.64-.34.09-7,2.31-13.81,6.36-19.52h0Z"
      style="fill:#ffffff;" />
   <path d="M6.92,20.58c.3-.02.58-.12.83-.27l.25.38,6.84,9.83c-.11.6-.23,1.2-.36,1.8l-7.57-11.74h0Z"
      style="fill:#ffffff;" />
   <path d="M12.71,38.58c-1.51,3.96-4.49,6.97-5.8,8.16v-26.16s0,0,.01,0l7.57,11.74c-.44,2.06-1,4.21-1.78,6.26h0Z"
      style="fill:transparent;" />
   <path d="M6.91,46.74v.78c-.14-.02-.29-.02-.43,0l-.07-.07v-.27c.11-.09.28-.24.5-.44Z" style="fill:#ffffff;" />
   <path d="M6.86,48.24s.03,0,.05,0c-.02,0-.03,0-.05,0Z" style="fill:#ffffff;" />
   <path d="M6.76,20.59c.05,0,.1,0,.15,0v26.16c-.22.2-.39.35-.5.44v-26.62c.11.02.23.03.35.03Z" style="fill:#f89120;" />
   <path
      d="M6.66,50.67c-.67,0-1.22-.54-1.22-1.21,0-.08,0-.16.02-.24h0s.01-.07.01-.07v-.02s.03-.06.03-.06c.02-.05.03-.1.06-.14h0c.02-.05.05-.1.08-.14h0s.03-.04.05-.07c.01-.02.03-.03.04-.05,0-.01.02-.02.03-.04l.02-.02s.03-.03.04-.04h0s.07-.07.11-.1t0,0h0s0,0,0,0c.02-.01.03-.02.05-.04.02-.01.04-.03.06-.04.03-.01.05-.03.07-.04.08-.04.16-.07.24-.09.02,0,.03,0,.05,0h.05c.07-.02.13-.03.2-.03.05,0,.1,0,.14,0h.04s.08.02.11.03h.03s.04.02.06.03h0s.08.03.12.05l.04.02s.02.01.03.02h0s.09.06.14.09c.04.03.09.07.12.11,0,0,.01.01.02.02l.02.02c.1.1.18.22.23.35h0s.02.04.02.06c0,.01.01.03.02.05.02.04.03.09.04.14,0,.04.01.08.02.12v.05c0,.07,0,.14,0,.21v.04s-.01.04-.01.04c0,.01,0,.02,0,.04-.01.07-.03.14-.06.2l-.03.06h0s0,.02-.01.03c0,.02-.02.04-.03.05h0s-.02.04-.03.06c-.04.07-.09.13-.15.19-.01.01-.02.03-.04.04h-.01s-.05.05-.05.05l-.04.03h0s-.06.04-.06.04h-.02s-.06.05-.06.05c-.02.01-.05.03-.07.04h0c-.05.03-.1.05-.16.07-.02,0-.04.01-.07.02-.02,0-.05.01-.07.01,0,0,0,0,0,0-.02,0-.04,0-.06,0h-.07s-.07.01-.1.01Z"
      style="fill:#ffffff;" />
   <path d="M6.47,19.84s-.04-.01-.06-.02l.06.02Z" style="fill:#ffffff;" />
   <path d="M6.41,47.45l.07.07h-.07s0-.07,0-.07Z" style="fill:#ffffff;" />
   <path
      d="M6.2,20.51c-2.22,4.42-3.38,9.31-3.37,14.26,0,4.5.94,8.94,2.79,13.04.24-.15.5-.24.78-.28v-26.97c-.07-.01-.14-.03-.2-.05Z"
      style="fill:#272742;" />
   <path d="M6.36,48.26h-.04s.03,0,.04,0ZM5.81,48.57s-.03.03-.04.04c.01-.01.03-.03.04-.04h0Z" style="fill:#ffffff;" />
   <path
      d="M5.73,51.14c.52.29,1.15.32,1.69.08,1.33,2.19,2.92,4.22,4.74,6.03,1.81,1.82,3.84,3.41,6.04,4.74l.22.54c-1.05.96-4.87-1.35-7.16-3.97-.55-.63-1.07-1.27-1.59-1.92h0c-1.72-2.2-3.19-4.38-3.19-4.38,0,0-.75-1.12-.75-1.12Z"
      style="fill:#069ebf;" />
   <path d="M9.66,56.63c-1.64-1.85-3.12-3.82-4.45-5.9.15.16.32.3.51.4l.75,1.12s1.46,2.18,3.18,4.37h0Z"
      style="fill:#069ebf;" />
   <path d="M5.45,17.24c.48-.8.99-1.58,1.54-2.34l.5.22c-.39.53-.76,1.08-1.1,1.64-.35.07-.68.24-.94.48h0Z"
      style="fill:#ffffff;" />
   <path
      d="M.64,34.48c.02-5.68,1.47-11.27,4.22-16.24-.18.82.19,1.67.92,2.09.13.08.27.14.41.18-2.22,4.42-3.38,9.31-3.37,14.26,0,4.5.94,8.94,2.79,13.04-.41.26-.71.66-.84,1.14-.05.18-.07.36-.07.54-.72-1.25-1.81-3.24-2.71-5.29h0s0,0,0,0c-.71-2.44-1.15-4.94-1.31-7.48"
      style="fill:#ece8e7;" />
   <path
      d="M2.08,44.43c.22.68.98,2.79,2.77,5.74.08.21.21.41.36.58,1.32,2.08,2.81,4.05,4.45,5.9h0c.52.66,1.06,1.32,1.59,1.93,2.29,2.61,6.11,4.93,7.16,3.97.04.09.07.17.09.22.2.49.13.75-.33,1.17-.13.11-.28.18-.45.19-7.44-4.28-13.12-11.31-15.64-19.68h0Z"
      style="fill:#ffffff;" />
   <path
      d="M.61,40.16c.27,1.24.79,2.65,1.4,4.03h0s0,0,0,0c0,.02.01.04.02.06v.02s.02.06.03.09v.03s.02.02.02.03c2.52,8.38,8.2,15.4,15.64,19.68-.52.06-1.3-.21-2.26-.63h0c-1.91-1.27-3.69-2.73-5.31-4.36C5,53.99,1.6,47.37.44,40.19l.17-.03h0Z"
      style="fill:#ffffff;" />
   <path
      d="M4.86,50.16c-1.79-2.94-2.56-5.06-2.77-5.74v-.03s-.02-.03-.02-.03v-.03s-.02-.04-.03-.06c0,0,0-.01,0-.02v-.04s-.02-.02-.02-.02c.9,2.05,1.99,4.03,2.71,5.29,0,.23.05.46.14.67Z"
      style="fill:#ece8e7;" />
   <path
      d="M2.01,44.2c-.61-1.38-1.13-2.8-1.4-4.03l-.17.03c-.17-1.03-.28-2.06-.36-3.1.24-.07.45-.2.62-.37.16,2.58.6,5.08,1.31,7.48h0Z"
      style="fill:#ffffff;" />
   <path
      d="M.65,35.21c0-.19,0-.38,0-.57v-.15c-.18-.16-.4-.28-.64-.34,0,.31,0,.61,0,.92,0,.68.03,1.35.08,2.03.24-.08.45-.2.62-.38-.03-.5-.05-1-.06-1.51h0Z"
      style="fill:#ffffff;" />
</svg>